<svg xmlns="http://www.w3.org/2000/svg" width="703" height="308" viewBox="0 0 703 308" role="img"><title>Atreus</title><g transform="translate(3.20,1.66)"><rect x="6.80" y="8.34" width="683.35" height="288.17" rx="6" fill="#eeeeee" stroke="#dddddd" stroke-width="1"/><g class="keycap" transform="rotate(10 54.00 0.00)"><rect x="55.00" y="28.00" width="52.00" height="52.00" rx="5" fill="#cccccc" stroke="#000000" stroke-width="2"/><rect x="61.00" y="31.00" width="40.00" height="40.00" rx="5" fill="#fbfbfb" stroke="rgba(0,0,0,0.1)" stroke-width="2"/><rect x="61.00" y="31.00" width="40.00" height="40.00" rx="5" fill="#fbfbfb"/><text x="63.00" y="42.60" text-anchor="start" font-size="12" fill="#000000" font-family="Helvetica,Arial,sans-serif">Q</text></g><g class="keycap" transform="rotate(10 54.00 0.00)"><rect x="109.00" y="14.50" width="52.00" height="52.00" rx="5" fill="#cccccc" stroke="#000000" stroke-width="2"/><rect x="115.00" y="17.50" width="40.00" height="40.00" rx="5" fill="#fbfbfb" stroke="rgba(0,0,0,0.1)" stroke-width="2"/><rect x="115.00" y="17.50" width="40.00" height="40.00" rx="5" fill="#fbfbfb"/><text x="117.00" y="29.10" text-anchor="start" font-size="12" fill="#000000" font-family="Helvetica,Arial,sans-serif">W</text></g><g class="keycap" transform="rotate(10 54.00 0.00)"><rect x="163.00" y="-4.40" width="52.00" height="52.00" rx="5" fill="#cccccc" stroke="#000000" stroke-width="2"/><rect x="169.00" y="-1.40" width="40.00" height="40.00" rx="5" fill="#fbfbfb" stroke="rgba(0,0,0,0.1)" stroke-width="2"/><rect x="169.00" y="-1.40" width="40.00" height="40.00" rx="5" fill="#fbfbfb"/><text x="171.00" y="10.20" text-anchor="start" font-size="12" fill="#000000" font-family="Helvetica,Arial,sans-serif">E</text></g><g class="keycap" transform="rotate(10 54.00 0.00)"><rect x="217.00" y="14.50" width="52.00" height="52.00" rx="5" fill="#cccccc" stroke="#000000" stroke-width="2"/><rect x="223.00" y="17.50" width="40.00" height="40.00" rx="5" fill="#fbfbfb" stroke="rgba(0,0,0,0.1)" stroke-width="2"/><rect x="223.00" y="17.50" width="40.00" height="40.00" rx="5" fill="#fbfbfb"/><text x="225.00" y="29.10" text-anchor="start" font-size="12" fill="#000000" font-family="Helvetica,Arial,sans-serif">R</text></g><g class="keycap" transform="rotate(10 54.00 0.00)"><rect x="271.00" y="33.40" width="52.00" height="52.00" rx="5" fill="#cccccc" stroke="#000000" stroke-width="2"/><rect x="277.00" y="36.40" width="40.00" height="40.00" rx="5" fill="#fbfbfb" stroke="rgba(0,0,0,0.1)" stroke-width="2"/><rect x="277.00" y="36.40" width="40.00" height="40.00" rx="5" fill="#fbfbfb"/><text x="279.00" y="48.00" text-anchor="start" font-size="12" fill="#000000" font-family="Helvetica,Arial,sans-serif">T</text></g><g class="keycap" transform="rotate(10 54.00 0.00)"><rect x="55.00" y="82.00" width="52.00" height="52.00" rx="5" fill="#cccccc" stroke="#000000" stroke-width="2"/><rect x="61.00" y="85.00" width="40.00" height="40.00" rx="5" fill="#fbfbfb" stroke="rgba(0,0,0,0.1)" stroke-width="2"/><rect x="61.00" y="85.00" width="40.00" height="40.00" rx="5" fill="#fbfbfb"/><text x="63.00" y="96.60" text-anchor="start" font-size="12" fill="#000000" font-family="Helvetica,Arial,sans-serif">A</text></g><g class="keycap" transform="rotate(10 54.00 0.00)"><rect x="109.00" y="68.50" width="52.00" height="52.00" rx="5" fill="#cccccc" stroke="#000000" stroke-width="2"/><rect x="115.00" y="71.50" width="40.00" height="40.00" rx="5" fill="#fbfbfb" stroke="rgba(0,0,0,0.1)" stroke-width="2"/><rect x="115.00" y="71.50" width="40.00" height="40.00" rx="5" fill="#fbfbfb"/><text x="117.00" y="83.10" text-anchor="start" font-size="12" fill="#000000" font-family="Helvetica,Arial,sans-serif">S</text></g><g class="keycap" transform="rotate(10 54.00 0.00)"><rect x="163.00" y="49.60" width="52.00" height="52.00" rx="5" fill="#cccccc" stroke="#000000" stroke-width="2"/><rect x="169.00" y="52.60" width="40.00" height="40.00" rx="5" fill="#fbfbfb" stroke="rgba(0,0,0,0.1)" stroke-width="2"/><rect x="169.00" y="52.60" width="40.00" height="40.00" rx="5" fill="#fbfbfb"/><text x="171.00" y="64.20" text-anchor="start" font-size="12" fill="#000000" font-family="Helvetica,Arial,sans-serif">D</text></g><g class="keycap" transform="rotate(10 54.00 0.00)"><rect x="217.00" y="68.50" width="52.00" height="52.00" rx="5" fill="#cccccc" stroke="#000000" stroke-width="2"/><rect x="223.00" y="71.50" width="40.00" height="40.00" rx="5" fill="#fbfbfb" stroke="rgba(0,0,0,0.1)" stroke-width="2"/><rect x="223.00" y="71.50" width="40.00" height="40.00" rx="5" fill="#fbfbfb"/><text x="225.00" y="83.10" text-anchor="start" font-size="12" fill="#000000" font-family="Helvetica,Arial,sans-serif">F</text></g><g class="keycap" transform="rotate(10 54.00 0.00)"><rect x="271.00" y="87.40" width="52.00" height="52.00" rx="5" fill="#cccccc" stroke="#000000" stroke-width="2"/><rect x="277.00" y="90.40" width="40.00" height="40.00" rx="5" fill="#fbfbfb" stroke="rgba(0,0,0,0.1)" stroke-width="2"/><rect x="277.00" y="90.40" width="40.00" height="40.00" rx="5" fill="#fbfbfb"/><text x="279.00" y="102.00" text-anchor="start" font-size="12" fill="#000000" font-family="Helvetica,Arial,sans-serif">G</text></g><g class="keycap" transform="rotate(10 54.00 0.00)"><rect x="55.00" y="136.00" width="52.00" height="52.00" rx="5" fill="#cccccc" stroke="#000000" stroke-width="2"/><rect x="61.00" y="139.00" width="40.00" height="40.00" rx="5" fill="#fbfbfb" stroke="rgba(0,0,0,0.1)" stroke-width="2"/><rect x="61.00" y="139.00" width="40.00" height="40.00" rx="5" fill="#fbfbfb"/><text x="63.00" y="150.60" text-anchor="start" font-size="12" fill="#000000" font-family="Helvetica,Arial,sans-serif">Z</text></g><g class="keycap" transform="rotate(10 54.00 0.00)"><rect x="109.00" y="122.50" width="52.00" height="52.00" rx="5" fill="#cccccc" stroke="#000000" stroke-width="2"/><rect x="115.00" y="125.50" width="40.00" height="40.00" rx="5" fill="#fbfbfb" stroke="rgba(0,0,0,0.1)" stroke-width="2"/><rect x="115.00" y="125.50" width="40.00" height="40.00" rx="5" fill="#fbfbfb"/><text x="117.00" y="137.10" text-anchor="start" font-size="12" fill="#000000" font-family="Helvetica,Arial,sans-serif">X</text></g><g class="keycap" transform="rotate(10 54.00 0.00)"><rect x="163.00" y="103.60" width="52.00" height="52.00" rx="5" fill="#cccccc" stroke="#000000" stroke-width="2"/><rect x="169.00" y="106.60" width="40.00" height="40.00" rx="5" fill="#fbfbfb" stroke="rgba(0,0,0,0.1)" stroke-width="2"/><rect x="169.00" y="106.60" width="40.00" height="40.00" rx="5" fill="#fbfbfb"/><text x="171.00" y="118.20" text-anchor="start" font-size="12" fill="#000000" font-family="Helvetica,Arial,sans-serif">C</text></g><g class="keycap" transform="rotate(10 54.00 0.00)"><rect x="217.00" y="122.50" width="52.00" height="52.00" rx="5" fill="#cccccc" stroke="#000000" stroke-width="2"/><rect x="223.00" y="125.50" width="40.00" height="40.00" rx="5" fill="#fbfbfb" stroke="rgba(0,0,0,0.1)" stroke-width="2"/><rect x="223.00" y="125.50" width="40.00" height="40.00" rx="5" fill="#fbfbfb"/><text x="225.00" y="137.10" text-anchor="start" font-size="12" fill="#000000" font-family="Helvetica,Arial,sans-serif">V</text></g><g class="keycap" transform="rotate(10 54.00 0.00)"><rect x="271.00" y="141.40" width="52.00" height="52.00" rx="5" fill="#cccccc" stroke="#000000" stroke-width="2"/><rect x="277.00" y="144.40" width="40.00" height="40.00" rx="5" fill="#fbfbfb" stroke="rgba(0,0,0,0.1)" stroke-width="2"/><rect x="277.00" y="144.40" width="40.00" height="40.00" rx="5" fill="#fbfbfb"/><text x="279.00" y="156.00" text-anchor="start" font-size="12" fill="#000000" font-family="Helvetica,Arial,sans-serif">B</text></g><g class="keycap" transform="rotate(10 54.00 0.00)"><rect x="55.00" y="190.00" width="52.00" height="52.00" rx="5" fill="#cccccc" stroke="#000000" stroke-width="2"/><rect x="61.00" y="193.00" width="40.00" height="40.00" rx="5" fill="#fbfbfb" stroke="rgba(0,0,0,0.1)" stroke-width="2"/><rect x="61.00" y="193.00" width="40.00" height="40.00" rx="5" fill="#fbfbfb"/><text x="63.00" y="204.60" text-anchor="start" font-size="12" fill="#000000" font-family="Helvetica,Arial,sans-serif">Esc</text></g><g class="keycap" transform="rotate(10 54.00 0.00)"><rect x="109.00" y="176.50" width="52.00" height="52.00" rx="5" fill="#cccccc" stroke="#000000" stroke-width="2"/><rect x="115.00" y="179.50" width="40.00" height="40.00" rx="5" fill="#fbfbfb" stroke="rgba(0,0,0,0.1)" stroke-width="2"/><rect x="115.00" y="179.50" width="40.00" height="40.00" rx="5" fill="#fbfbfb"/><text x="117.00" y="191.10" text-anchor="start" font-size="12" fill="#000000" font-family="Helvetica,Arial,sans-serif">Tab</text></g><g class="keycap" transform="rotate(10 54.00 0.00)"><rect x="163.00" y="157.60" width="52.00" height="52.00" rx="5" fill="#cccccc" stroke="#000000" stroke-width="2"/><rect x="169.00" y="160.60" width="40.00" height="40.00" rx="5" fill="#fbfbfb" stroke="rgba(0,0,0,0.1)" stroke-width="2"/><rect x="169.00" y="160.60" width="40.00" height="40.00" rx="5" fill="#fbfbfb"/><text x="171.00" y="172.20" text-anchor="start" font-size="12" fill="#000000" font-family="Helvetica,Arial,sans-serif">super</text></g><g class="keycap" transform="rotate(10 54.00 0.00)"><rect x="217.00" y="176.50" width="52.00" height="52.00" rx="5" fill="#cccccc" stroke="#000000" stroke-width="2"/><rect x="223.00" y="179.50" width="40.00" height="40.00" rx="5" fill="#fbfbfb" stroke="rgba(0,0,0,0.1)" stroke-width="2"/><rect x="223.00" y="179.50" width="40.00" height="40.00" rx="5" fill="#fbfbfb"/><text x="225.00" y="191.10" text-anchor="start" font-size="12" fill="#000000" font-family="Helvetica,Arial,sans-serif">Shift</text></g><g class="keycap" transform="rotate(10 54.00 0.00)"><rect x="271.00" y="195.40" width="52.00" height="52.00" rx="5" fill="#cccccc" stroke="#000000" stroke-width="2"/><rect x="277.00" y="198.40" width="40.00" height="40.00" rx="5" fill="#fbfbfb" stroke="rgba(0,0,0,0.1)" stroke-width="2"/><rect x="277.00" y="198.40" width="40.00" height="40.00" rx="5" fill="#fbfbfb"/><text x="279.00" y="210.00" text-anchor="start" font-size="12" fill="#000000" font-family="Helvetica,Arial,sans-serif">Bksp</text></g><g class="keycap" transform="rotate(10 54.00 0.00)"><rect x="325.00" y="154.90" width="52.00" height="79.00" rx="5" fill="#cccccc" stroke="#000000" stroke-width="2"/><rect x="331.00" y="157.90" width="40.00" height="67.00" rx="5" fill="#fbfbfb" stroke="rgba(0,0,0,0.1)" stroke-width="2"/><rect x="331.00" y="157.90" width="40.00" height="67.00" rx="5" fill="#fbfbfb"/><text x="333.00" y="169.50" text-anchor="start" font-size="12" fill="#000000" font-family="Helvetica,Arial,sans-serif">Ctrl</text></g><g class="keycap" transform="rotate(-10 378.00 52.11)"><rect x="379.00" y="80.11" width="52.00" height="52.00" rx="5" fill="#cccccc" stroke="#000000" stroke-width="2"/><rect x="385.00" y="83.11" width="40.00" height="40.00" rx="5" fill="#fbfbfb" stroke="rgba(0,0,0,0.1)" stroke-width="2"/><rect x="385.00" y="83.11" width="40.00" height="40.00" rx="5" fill="#fbfbfb"/><text x="387.00" y="94.71" text-anchor="start" font-size="12" fill="#000000" font-family="Helvetica,Arial,sans-serif">Y</text></g><g class="keycap" transform="rotate(-10 378.00 52.11)"><rect x="433.00" y="61.21" width="52.00" height="52.00" rx="5" fill="#cccccc" stroke="#000000" stroke-width="2"/><rect x="439.00" y="64.21" width="40.00" height="40.00" rx="5" fill="#fbfbfb" stroke="rgba(0,0,0,0.1)" stroke-width="2"/><rect x="439.00" y="64.21" width="40.00" height="40.00" rx="5" fill="#fbfbfb"/><text x="441.00" y="75.81" text-anchor="start" font-size="12" fill="#000000" font-family="Helvetica,Arial,sans-serif">U</text></g><g class="keycap" transform="rotate(-10 378.00 52.11)"><rect x="487.00" y="42.31" width="52.00" height="52.00" rx="5" fill="#cccccc" stroke="#000000" stroke-width="2"/><rect x="493.00" y="45.31" width="40.00" height="40.00" rx="5" fill="#fbfbfb" stroke="rgba(0,0,0,0.1)" stroke-width="2"/><rect x="493.00" y="45.31" width="40.00" height="40.00" rx="5" fill="#fbfbfb"/><text x="495.00" y="56.91" text-anchor="start" font-size="12" fill="#000000" font-family="Helvetica,Arial,sans-serif">I</text></g><g class="keycap" transform="rotate(-10 378.00 52.11)"><rect x="541.00" y="61.21" width="52.00" height="52.00" rx="5" fill="#cccccc" stroke="#000000" stroke-width="2"/><rect x="547.00" y="64.21" width="40.00" height="40.00" rx="5" fill="#fbfbfb" stroke="rgba(0,0,0,0.1)" stroke-width="2"/><rect x="547.00" y="64.21" width="40.00" height="40.00" rx="5" fill="#fbfbfb"/><text x="549.00" y="75.81" text-anchor="start" font-size="12" fill="#000000" font-family="Helvetica,Arial,sans-serif">O</text></g><g class="keycap" transform="rotate(-10 378.00 52.11)"><rect x="595.00" y="74.71" width="52.00" height="52.00" rx="5" fill="#cccccc" stroke="#000000" stroke-width="2"/><rect x="601.00" y="77.71" width="40.00" height="40.00" rx="5" fill="#fbfbfb" stroke="rgba(0,0,0,0.1)" stroke-width="2"/><rect x="601.00" y="77.71" width="40.00" height="40.00" rx="5" fill="#fbfbfb"/><text x="603.00" y="89.31" text-anchor="start" font-size="12" fill="#000000" font-family="Helvetica,Arial,sans-serif">P</text></g><g class="keycap" transform="rotate(-10 378.00 52.11)"><rect x="379.00" y="134.11" width="52.00" height="52.00" rx="5" fill="#cccccc" stroke="#000000" stroke-width="2"/><rect x="385.00" y="137.11" width="40.00" height="40.00" rx="5" fill="#fbfbfb" stroke="rgba(0,0,0,0.1)" stroke-width="2"/><rect x="385.00" y="137.11" width="40.00" height="40.00" rx="5" fill="#fbfbfb"/><text x="387.00" y="148.71" text-anchor="start" font-size="12" fill="#000000" font-family="Helvetica,Arial,sans-serif">H</text></g><g class="keycap" transform="rotate(-10 378.00 52.11)"><rect x="433.00" y="115.21" width="52.00" height="52.00" rx="5" fill="#cccccc" stroke="#000000" stroke-width="2"/><rect x="439.00" y="118.21" width="40.00" height="40.00" rx="5" fill="#fbfbfb" stroke="rgba(0,0,0,0.1)" stroke-width="2"/><rect x="439.00" y="118.21" width="40.00" height="40.00" rx="5" fill="#fbfbfb"/><text x="441.00" y="129.81" text-anchor="start" font-size="12" fill="#000000" font-family="Helvetica,Arial,sans-serif">J</text></g><g class="keycap" transform="rotate(-10 378.00 52.11)"><rect x="487.00" y="96.31" width="52.00" height="52.00" rx="5" fill="#cccccc" stroke="#000000" stroke-width="2"/><rect x="493.00" y="99.31" width="40.00" height="40.00" rx="5" fill="#fbfbfb" stroke="rgba(0,0,0,0.1)" stroke-width="2"/><rect x="493.00" y="99.31" width="40.00" height="40.00" rx="5" fill="#fbfbfb"/><text x="495.00" y="110.91" text-anchor="start" font-size="12" fill="#000000" font-family="Helvetica,Arial,sans-serif">K</text></g><g class="keycap" transform="rotate(-10 378.00 52.11)"><rect x="541.00" y="115.21" width="52.00" height="52.00" rx="5" fill="#cccccc" stroke="#000000" stroke-width="2"/><rect x="547.00" y="118.21" width="40.00" height="40.00" rx="5" fill="#fbfbfb" stroke="rgba(0,0,0,0.1)" stroke-width="2"/><rect x="547.00" y="118.21" width="40.00" height="40.00" rx="5" fill="#fbfbfb"/><text x="549.00" y="129.81" text-anchor="start" font-size="12" fill="#000000" font-family="Helvetica,Arial,sans-serif">L</text></g><g class="keycap" transform="rotate(-10 378.00 52.11)"><rect x="595.00" y="128.71" width="52.00" height="52.00" rx="5" fill="#cccccc" stroke="#000000" stroke-width="2"/><rect x="601.00" y="131.71" width="40.00" height="40.00" rx="5" fill="#fbfbfb" stroke="rgba(0,0,0,0.1)" stroke-width="2"/><rect x="601.00" y="131.71" width="40.00" height="40.00" rx="5" fill="#fbfbfb"/><text x="603.00" y="143.31" text-anchor="start" font-size="12" fill="#000000" font-family="Helvetica,Arial,sans-serif">:</text><text x="603.00" y="167.31" text-anchor="start" font-size="12" fill="#000000" font-family="Helvetica,Arial,sans-serif">;</text></g><g class="keycap" transform="rotate(-10 378.00 52.11)"><rect x="379.00" y="188.11" width="52.00" height="52.00" rx="5" fill="#cccccc" stroke="#000000" stroke-width="2"/><rect x="385.00" y="191.11" width="40.00" height="40.00" rx="5" fill="#fbfbfb" stroke="rgba(0,0,0,0.1)" stroke-width="2"/><rect x="385.00" y="191.11" width="40.00" height="40.00" rx="5" fill="#fbfbfb"/><text x="387.00" y="202.71" text-anchor="start" font-size="12" fill="#000000" font-family="Helvetica,Arial,sans-serif">N</text></g><g class="keycap" transform="rotate(-10 378.00 52.11)"><rect x="433.00" y="169.21" width="52.00" height="52.00" rx="5" fill="#cccccc" stroke="#000000" stroke-width="2"/><rect x="439.00" y="172.21" width="40.00" height="40.00" rx="5" fill="#fbfbfb" stroke="rgba(0,0,0,0.1)" stroke-width="2"/><rect x="439.00" y="172.21" width="40.00" height="40.00" rx="5" fill="#fbfbfb"/><text x="441.00" y="183.81" text-anchor="start" font-size="12" fill="#000000" font-family="Helvetica,Arial,sans-serif">M</text></g><g class="keycap" transform="rotate(-10 378.00 52.11)"><rect x="487.00" y="150.31" width="52.00" height="52.00" rx="5" fill="#cccccc" stroke="#000000" stroke-width="2"/><rect x="493.00" y="153.31" width="40.00" height="40.00" rx="5" fill="#fbfbfb" stroke="rgba(0,0,0,0.1)" stroke-width="2"/><rect x="493.00" y="153.31" width="40.00" height="40.00" rx="5" fill="#fbfbfb"/><text x="495.00" y="164.91" text-anchor="start" font-size="12" fill="#000000" font-family="Helvetica,Arial,sans-serif">&lt;</text><text x="495.00" y="188.91" text-anchor="start" font-size="12" fill="#000000" font-family="Helvetica,Arial,sans-serif">,</text></g><g class="keycap" transform="rotate(-10 378.00 52.11)"><rect x="541.00" y="169.21" width="52.00" height="52.00" rx="5" fill="#cccccc" stroke="#000000" stroke-width="2"/><rect x="547.00" y="172.21" width="40.00" height="40.00" rx="5" fill="#fbfbfb" stroke="rgba(0,0,0,0.1)" stroke-width="2"/><rect x="547.00" y="172.21" width="40.00" height="40.00" rx="5" fill="#fbfbfb"/><text x="549.00" y="183.81" text-anchor="start" font-size="12" fill="#000000" font-family="Helvetica,Arial,sans-serif">&gt;</text><text x="549.00" y="207.81" text-anchor="start" font-size="12" fill="#000000" font-family="Helvetica,Arial,sans-serif">.</text></g><g class="keycap" transform="rotate(-10 378.00 52.11)"><rect x="595.00" y="182.71" width="52.00" height="52.00" rx="5" fill="#cccccc" stroke="#000000" stroke-width="2"/><rect x="601.00" y="185.71" width="40.00" height="40.00" rx="5" fill="#fbfbfb" stroke="rgba(0,0,0,0.1)" stroke-width="2"/><rect x="601.00" y="185.71" width="40.00" height="40.00" rx="5" fill="#fbfbfb"/><text x="603.00" y="197.31" text-anchor="start" font-size="12" fill="#000000" font-family="Helvetica,Arial,sans-serif">?</text><text x="603.00" y="221.31" text-anchor="start" font-size="12" fill="#000000" font-family="Helvetica,Arial,sans-serif">/</text></g><g class="keycap" transform="rotate(-10 378.00 52.11)"><rect x="325.00" y="201.61" width="52.00" height="79.00" rx="5" fill="#cccccc" stroke="#000000" stroke-width="2"/><rect x="331.00" y="204.61" width="40.00" height="67.00" rx="5" fill="#fbfbfb" stroke="rgba(0,0,0,0.1)" stroke-width="2"/><rect x="331.00" y="204.61" width="40.00" height="67.00" rx="5" fill="#fbfbfb"/><text x="333.00" y="216.21" text-anchor="start" font-size="12" fill="#000000" font-family="Helvetica,Arial,sans-serif">Alt</text></g><g class="keycap" transform="rotate(-10 378.00 52.11)"><rect x="379.00" y="242.11" width="52.00" height="52.00" rx="5" fill="#cccccc" stroke="#000000" stroke-width="2"/><rect x="385.00" y="245.11" width="40.00" height="40.00" rx="5" fill="#fbfbfb" stroke="rgba(0,0,0,0.1)" stroke-width="2"/><rect x="385.00" y="245.11" width="40.00" height="40.00" rx="5" fill="#fbfbfb"/><text x="387.00" y="256.71" text-anchor="start" font-size="12" fill="#000000" font-family="Helvetica,Arial,sans-serif">Space</text></g><g class="keycap" transform="rotate(-10 378.00 52.11)"><rect x="433.00" y="223.21" width="52.00" height="52.00" rx="5" fill="#cccccc" stroke="#000000" stroke-width="2"/><rect x="439.00" y="226.21" width="40.00" height="40.00" rx="5" fill="#fbfbfb" stroke="rgba(0,0,0,0.1)" stroke-width="2"/><rect x="439.00" y="226.21" width="40.00" height="40.00" rx="5" fill="#fbfbfb"/><text x="441.00" y="237.81" text-anchor="start" font-size="12" fill="#000000" font-family="Helvetica,Arial,sans-serif">fn</text></g><g class="keycap" transform="rotate(-10 378.00 52.11)"><rect x="487.00" y="204.31" width="52.00" height="52.00" rx="5" fill="#cccccc" stroke="#000000" stroke-width="2"/><rect x="493.00" y="207.31" width="40.00" height="40.00" rx="5" fill="#fbfbfb" stroke="rgba(0,0,0,0.1)" stroke-width="2"/><rect x="493.00" y="207.31" width="40.00" height="40.00" rx="5" fill="#fbfbfb"/><text x="495.00" y="218.91" text-anchor="start" font-size="12" fill="#000000" font-family="Helvetica,Arial,sans-serif">_</text><text x="495.00" y="242.91" text-anchor="start" font-size="12" fill="#000000" font-family="Helvetica,Arial,sans-serif">-</text></g><g class="keycap" transform="rotate(-10 378.00 52.11)"><rect x="541.00" y="223.21" width="52.00" height="52.00" rx="5" fill="#cccccc" stroke="#000000" stroke-width="2"/><rect x="547.00" y="226.21" width="40.00" height="40.00" rx="5" fill="#fbfbfb" stroke="rgba(0,0,0,0.1)" stroke-width="2"/><rect x="547.00" y="226.21" width="40.00" height="40.00" rx="5" fill="#fbfbfb"/><text x="549.00" y="237.81" text-anchor="start" font-size="12" fill="#000000" font-family="Helvetica,Arial,sans-serif">"</text><text x="549.00" y="261.81" text-anchor="start" font-size="12" fill="#000000" font-family="Helvetica,Arial,sans-serif">'</text></g><g class="keycap" transform="rotate(-10 378.00 52.11)"><rect x="595.00" y="236.71" width="52.00" height="52.00" rx="5" fill="#cccccc" stroke="#000000" stroke-width="2"/><rect x="601.00" y="239.71" width="40.00" height="40.00" rx="5" fill="#fbfbfb" stroke="rgba(0,0,0,0.1)" stroke-width="2"/><rect x="601.00" y="239.71" width="40.00" height="40.00" rx="5" fill="#fbfbfb"/><text x="603.00" y="251.31" text-anchor="start" font-size="12" fill="#000000" font-family="Helvetica,Arial,sans-serif">Enter</text></g></g></svg>