<svg xmlns="http://www.w3.org/2000/svg" width="840" height="300" viewBox="0 0 840 300" role="img"><title>ISO 60%</title><g transform="translate(15.00,15.00)"><rect x="-5.00" y="-5.00" width="820.00" height="280.00" rx="6" fill="#eeeeee" stroke="#dddddd" stroke-width="1"/><g class="keycap"><rect x="1.00" y="1.00" width="52.00" height="52.00" rx="5" fill="#cccccc" stroke="#000000" stroke-width="2"/><rect x="7.00" y="4.00" width="40.00" height="40.00" rx="5" fill="#fbfbfb" stroke="rgba(0,0,0,0.1)" stroke-width="2"/><rect x="7.00" y="4.00" width="40.00" height="40.00" rx="5" fill="#fbfbfb"/><text x="9.00" y="15.60" text-anchor="start" font-size="12" fill="#000000" font-family="Helvetica,Arial,sans-serif">¬</text><text x="9.00" y="39.60" text-anchor="start" font-size="12" fill="#000000" font-family="Helvetica,Arial,sans-serif">`</text></g><g class="keycap"><rect x="55.00" y="1.00" width="52.00" height="52.00" rx="5" fill="#cccccc" stroke="#000000" stroke-width="2"/><rect x="61.00" y="4.00" width="40.00" height="40.00" rx="5" fill="#fbfbfb" stroke="rgba(0,0,0,0.1)" stroke-width="2"/><rect x="61.00" y="4.00" width="40.00" height="40.00" rx="5" fill="#fbfbfb"/><text x="63.00" y="15.60" text-anchor="start" font-size="12" fill="#000000" font-family="Helvetica,Arial,sans-serif">!</text><text x="63.00" y="39.60" text-anchor="start" font-size="12" fill="#000000" font-family="Helvetica,Arial,sans-serif">1</text></g><g class="keycap"><rect x="109.00" y="1.00" width="52.00" height="52.00" rx="5" fill="#cccccc" stroke="#000000" stroke-width="2"/><rect x="115.00" y="4.00" width="40.00" height="40.00" rx="5" fill="#fbfbfb" stroke="rgba(0,0,0,0.1)" stroke-width="2"/><rect x="115.00" y="4.00" width="40.00" height="40.00" rx="5" fill="#fbfbfb"/><text x="117.00" y="15.60" text-anchor="start" font-size="12" fill="#000000" font-family="Helvetica,Arial,sans-serif">"</text><text x="117.00" y="39.60" text-anchor="start" font-size="12" fill="#000000" font-family="Helvetica,Arial,sans-serif">2</text></g><g class="keycap"><rect x="163.00" y="1.00" width="52.00" height="52.00" rx="5" fill="#cccccc" stroke="#000000" stroke-width="2"/><rect x="169.00" y="4.00" width="40.00" height="40.00" rx="5" fill="#fbfbfb" stroke="rgba(0,0,0,0.1)" stroke-width="2"/><rect x="169.00" y="4.00" width="40.00" height="40.00" rx="5" fill="#fbfbfb"/><text x="171.00" y="15.60" text-anchor="start" font-size="12" fill="#000000" font-family="Helvetica,Arial,sans-serif">£</text><text x="171.00" y="39.60" text-anchor="start" font-size="12" fill="#000000" font-family="Helvetica,Arial,sans-serif">3</text></g><g class="keycap"><rect x="217.00" y="1.00" width="52.00" height="52.00" rx="5" fill="#cccccc" stroke="#000000" stroke-width="2"/><rect x="223.00" y="4.00" width="40.00" height="40.00" rx="5" fill="#fbfbfb" stroke="rgba(0,0,0,0.1)" stroke-width="2"/><rect x="223.00" y="4.00" width="40.00" height="40.00" rx="5" fill="#fbfbfb"/><text x="225.00" y="15.60" text-anchor="start" font-size="12" fill="#000000" font-family="Helvetica,Arial,sans-serif">$</text><text x="225.00" y="39.60" text-anchor="start" font-size="12" fill="#000000" font-family="Helvetica,Arial,sans-serif">4</text></g><g class="keycap"><rect x="271.00" y="1.00" width="52.00" height="52.00" rx="5" fill="#cccccc" stroke="#000000" stroke-width="2"/><rect x="277.00" y="4.00" width="40.00" height="40.00" rx="5" fill="#fbfbfb" stroke="rgba(0,0,0,0.1)" stroke-width="2"/><rect x="277.00" y="4.00" width="40.00" height="40.00" rx="5" fill="#fbfbfb"/><text x="279.00" y="15.60" text-anchor="start" font-size="12" fill="#000000" font-family="Helvetica,Arial,sans-serif">%</text><text x="279.00" y="39.60" text-anchor="start" font-size="12" fill="#000000" font-family="Helvetica,Arial,sans-serif">5</text></g><g class="keycap"><rect x="325.00" y="1.00" width="52.00" height="52.00" rx="5" fill="#cccccc" stroke="#000000" stroke-width="2"/><rect x="331.00" y="4.00" width="40.00" height="40.00" rx="5" fill="#fbfbfb" stroke="rgba(0,0,0,0.1)" stroke-width="2"/><rect x="331.00" y="4.00" width="40.00" height="40.00" rx="5" fill="#fbfbfb"/><text x="333.00" y="15.60" text-anchor="start" font-size="12" fill="#000000" font-family="Helvetica,Arial,sans-serif">^</text><text x="333.00" y="39.60" text-anchor="start" font-size="12" fill="#000000" font-family="Helvetica,Arial,sans-serif">6</text></g><g class="keycap"><rect x="379.00" y="1.00" width="52.00" height="52.00" rx="5" fill="#cccccc" stroke="#000000" stroke-width="2"/><rect x="385.00" y="4.00" width="40.00" height="40.00" rx="5" fill="#fbfbfb" stroke="rgba(0,0,0,0.1)" stroke-width="2"/><rect x="385.00" y="4.00" width="40.00" height="40.00" rx="5" fill="#fbfbfb"/><text x="387.00" y="15.60" text-anchor="start" font-size="12" fill="#000000" font-family="Helvetica,Arial,sans-serif">&amp;</text><text x="387.00" y="39.60" text-anchor="start" font-size="12" fill="#000000" font-family="Helvetica,Arial,sans-serif">7</text></g><g class="keycap"><rect x="433.00" y="1.00" width="52.00" height="52.00" rx="5" fill="#cccccc" stroke="#000000" stroke-width="2"/><rect x="439.00" y="4.00" width="40.00" height="40.00" rx="5" fill="#fbfbfb" stroke="rgba(0,0,0,0.1)" stroke-width="2"/><rect x="439.00" y="4.00" width="40.00" height="40.00" rx="5" fill="#fbfbfb"/><text x="441.00" y="15.60" text-anchor="start" font-size="12" fill="#000000" font-family="Helvetica,Arial,sans-serif">*</text><text x="441.00" y="39.60" text-anchor="start" font-size="12" fill="#000000" font-family="Helvetica,Arial,sans-serif">8</text></g><g class="keycap"><rect x="487.00" y="1.00" width="52.00" height="52.00" rx="5" fill="#cccccc" stroke="#000000" stroke-width="2"/><rect x="493.00" y="4.00" width="40.00" height="40.00" rx="5" fill="#fbfbfb" stroke="rgba(0,0,0,0.1)" stroke-width="2"/><rect x="493.00" y="4.00" width="40.00" height="40.00" rx="5" fill="#fbfbfb"/><text x="495.00" y="15.60" text-anchor="start" font-size="12" fill="#000000" font-family="Helvetica,Arial,sans-serif">(</text><text x="495.00" y="39.60" text-anchor="start" font-size="12" fill="#000000" font-family="Helvetica,Arial,sans-serif">9</text></g><g class="keycap"><rect x="541.00" y="1.00" width="52.00" height="52.00" rx="5" fill="#cccccc" stroke="#000000" stroke-width="2"/><rect x="547.00" y="4.00" width="40.00" height="40.00" rx="5" fill="#fbfbfb" stroke="rgba(0,0,0,0.1)" stroke-width="2"/><rect x="547.00" y="4.00" width="40.00" height="40.00" rx="5" fill="#fbfbfb"/><text x="549.00" y="15.60" text-anchor="start" font-size="12" fill="#000000" font-family="Helvetica,Arial,sans-serif">)</text><text x="549.00" y="39.60" text-anchor="start" font-size="12" fill="#000000" font-family="Helvetica,Arial,sans-serif">0</text></g><g class="keycap"><rect x="595.00" y="1.00" width="52.00" height="52.00" rx="5" fill="#cccccc" stroke="#000000" stroke-width="2"/><rect x="601.00" y="4.00" width="40.00" height="40.00" rx="5" fill="#fbfbfb" stroke="rgba(0,0,0,0.1)" stroke-width="2"/><rect x="601.00" y="4.00" width="40.00" height="40.00" rx="5" fill="#fbfbfb"/><text x="603.00" y="15.60" text-anchor="start" font-size="12" fill="#000000" font-family="Helvetica,Arial,sans-serif">_</text><text x="603.00" y="39.60" text-anchor="start" font-size="12" fill="#000000" font-family="Helvetica,Arial,sans-serif">-</text></g><g class="keycap"><rect x="649.00" y="1.00" width="52.00" height="52.00" rx="5" fill="#cccccc" stroke="#000000" stroke-width="2"/><rect x="655.00" y="4.00" width="40.00" height="40.00" rx="5" fill="#fbfbfb" stroke="rgba(0,0,0,0.1)" stroke-width="2"/><rect x="655.00" y="4.00" width="40.00" height="40.00" rx="5" fill="#fbfbfb"/><text x="657.00" y="15.60" text-anchor="start" font-size="12" fill="#000000" font-family="Helvetica,Arial,sans-serif">+</text><text x="657.00" y="39.60" text-anchor="start" font-size="12" fill="#000000" font-family="Helvetica,Arial,sans-serif">=</text></g><g class="keycap"><rect x="703.00" y="1.00" width="106.00" height="52.00" rx="5" fill="#cccccc" stroke="#000000" stroke-width="2"/><rect x="709.00" y="4.00" width="94.00" height="40.00" rx="5" fill="#fbfbfb" stroke="rgba(0,0,0,0.1)" stroke-width="2"/><rect x="709.00" y="4.00" width="94.00" height="40.00" rx="5" fill="#fbfbfb"/><text x="711.00" y="15.60" text-anchor="start" font-size="12" fill="#000000" font-family="Helvetica,Arial,sans-serif">Backspace</text></g><g class="keycap"><rect x="1.00" y="55.00" width="79.00" height="52.00" rx="5" fill="#cccccc" stroke="#000000" stroke-width="2"/><rect x="7.00" y="58.00" width="67.00" height="40.00" rx="5" fill="#fbfbfb" stroke="rgba(0,0,0,0.1)" stroke-width="2"/><rect x="7.00" y="58.00" width="67.00" height="40.00" rx="5" fill="#fbfbfb"/><text x="9.00" y="69.60" text-anchor="start" font-size="12" fill="#000000" font-family="Helvetica,Arial,sans-serif">Tab</text></g><g class="keycap"><rect x="82.00" y="55.00" width="52.00" height="52.00" rx="5" fill="#cccccc" stroke="#000000" stroke-width="2"/><rect x="88.00" y="58.00" width="40.00" height="40.00" rx="5" fill="#fbfbfb" stroke="rgba(0,0,0,0.1)" stroke-width="2"/><rect x="88.00" y="58.00" width="40.00" height="40.00" rx="5" fill="#fbfbfb"/><text x="90.00" y="69.60" text-anchor="start" font-size="12" fill="#000000" font-family="Helvetica,Arial,sans-serif">Q</text></g><g class="keycap"><rect x="136.00" y="55.00" width="52.00" height="52.00" rx="5" fill="#cccccc" stroke="#000000" stroke-width="2"/><rect x="142.00" y="58.00" width="40.00" height="40.00" rx="5" fill="#fbfbfb" stroke="rgba(0,0,0,0.1)" stroke-width="2"/><rect x="142.00" y="58.00" width="40.00" height="40.00" rx="5" fill="#fbfbfb"/><text x="144.00" y="69.60" text-anchor="start" font-size="12" fill="#000000" font-family="Helvetica,Arial,sans-serif">W</text></g><g class="keycap"><rect x="190.00" y="55.00" width="52.00" height="52.00" rx="5" fill="#cccccc" stroke="#000000" stroke-width="2"/><rect x="196.00" y="58.00" width="40.00" height="40.00" rx="5" fill="#fbfbfb" stroke="rgba(0,0,0,0.1)" stroke-width="2"/><rect x="196.00" y="58.00" width="40.00" height="40.00" rx="5" fill="#fbfbfb"/><text x="198.00" y="69.60" text-anchor="start" font-size="12" fill="#000000" font-family="Helvetica,Arial,sans-serif">E</text></g><g class="keycap"><rect x="244.00" y="55.00" width="52.00" height="52.00" rx="5" fill="#cccccc" stroke="#000000" stroke-width="2"/><rect x="250.00" y="58.00" width="40.00" height="40.00" rx="5" fill="#fbfbfb" stroke="rgba(0,0,0,0.1)" stroke-width="2"/><rect x="250.00" y="58.00" width="40.00" height="40.00" rx="5" fill="#fbfbfb"/><text x="252.00" y="69.60" text-anchor="start" font-size="12" fill="#000000" font-family="Helvetica,Arial,sans-serif">R</text></g><g class="keycap"><rect x="298.00" y="55.00" width="52.00" height="52.00" rx="5" fill="#cccccc" stroke="#000000" stroke-width="2"/><rect x="304.00" y="58.00" width="40.00" height="40.00" rx="5" fill="#fbfbfb" stroke="rgba(0,0,0,0.1)" stroke-width="2"/><rect x="304.00" y="58.00" width="40.00" height="40.00" rx="5" fill="#fbfbfb"/><text x="306.00" y="69.60" text-anchor="start" font-size="12" fill="#000000" font-family="Helvetica,Arial,sans-serif">T</text></g><g class="keycap"><rect x="352.00" y="55.00" width="52.00" height="52.00" rx="5" fill="#cccccc" stroke="#000000" stroke-width="2"/><rect x="358.00" y="58.00" width="40.00" height="40.00" rx="5" fill="#fbfbfb" stroke="rgba(0,0,0,0.1)" stroke-width="2"/><rect x="358.00" y="58.00" width="40.00" height="40.00" rx="5" fill="#fbfbfb"/><text x="360.00" y="69.60" text-anchor="start" font-size="12" fill="#000000" font-family="Helvetica,Arial,sans-serif">Y</text></g><g class="keycap"><rect x="406.00" y="55.00" width="52.00" height="52.00" rx="5" fill="#cccccc" stroke="#000000" stroke-width="2"/><rect x="412.00" y="58.00" width="40.00" height="40.00" rx="5" fill="#fbfbfb" stroke="rgba(0,0,0,0.1)" stroke-width="2"/><rect x="412.00" y="58.00" width="40.00" height="40.00" rx="5" fill="#fbfbfb"/><text x="414.00" y="69.60" text-anchor="start" font-size="12" fill="#000000" font-family="Helvetica,Arial,sans-serif">U</text></g><g class="keycap"><rect x="460.00" y="55.00" width="52.00" height="52.00" rx="5" fill="#cccccc" stroke="#000000" stroke-width="2"/><rect x="466.00" y="58.00" width="40.00" height="40.00" rx="5" fill="#fbfbfb" stroke="rgba(0,0,0,0.1)" stroke-width="2"/><rect x="466.00" y="58.00" width="40.00" height="40.00" rx="5" fill="#fbfbfb"/><text x="468.00" y="69.60" text-anchor="start" font-size="12" fill="#000000" font-family="Helvetica,Arial,sans-serif">I</text></g><g class="keycap"><rect x="514.00" y="55.00" width="52.00" height="52.00" rx="5" fill="#cccccc" stroke="#000000" stroke-width="2"/><rect x="520.00" y="58.00" width="40.00" height="40.00" rx="5" fill="#fbfbfb" stroke="rgba(0,0,0,0.1)" stroke-width="2"/><rect x="520.00" y="58.00" width="40.00" height="40.00" rx="5" fill="#fbfbfb"/><text x="522.00" y="69.60" text-anchor="start" font-size="12" fill="#000000" font-family="Helvetica,Arial,sans-serif">O</text></g><g class="keycap"><rect x="568.00" y="55.00" width="52.00" height="52.00" rx="5" fill="#cccccc" stroke="#000000" stroke-width="2"/><rect x="574.00" y="58.00" width="40.00" height="40.00" rx="5" fill="#fbfbfb" stroke="rgba(0,0,0,0.1)" stroke-width="2"/><rect x="574.00" y="58.00" width="40.00" height="40.00" rx="5" fill="#fbfbfb"/><text x="576.00" y="69.60" text-anchor="start" font-size="12" fill="#000000" font-family="Helvetica,Arial,sans-serif">P</text></g><g class="keycap"><rect x="622.00" y="55.00" width="52.00" height="52.00" rx="5" fill="#cccccc" stroke="#000000" stroke-width="2"/><rect x="628.00" y="58.00" width="40.00" height="40.00" rx="5" fill="#fbfbfb" stroke="rgba(0,0,0,0.1)" stroke-width="2"/><rect x="628.00" y="58.00" width="40.00" height="40.00" rx="5" fill="#fbfbfb"/><text x="630.00" y="69.60" text-anchor="start" font-size="12" fill="#000000" font-family="Helvetica,Arial,sans-serif">{</text><text x="630.00" y="93.60" text-anchor="start" font-size="12" fill="#000000" font-family="Helvetica,Arial,sans-serif">[</text></g><g class="keycap"><rect x="676.00" y="55.00" width="52.00" height="52.00" rx="5" fill="#cccccc" stroke="#000000" stroke-width="2"/><rect x="682.00" y="58.00" width="40.00" height="40.00" rx="5" fill="#fbfbfb" stroke="rgba(0,0,0,0.1)" stroke-width="2"/><rect x="682.00" y="58.00" width="40.00" height="40.00" rx="5" fill="#fbfbfb"/><text x="684.00" y="69.60" text-anchor="start" font-size="12" fill="#000000" font-family="Helvetica,Arial,sans-serif">}</text><text x="684.00" y="93.60" text-anchor="start" font-size="12" fill="#000000" font-family="Helvetica,Arial,sans-serif">]</text></g><g class="keycap"><rect x="743.50" y="55.00" width="65.50" height="106.00" rx="5" fill="#cccccc" stroke="#000000" stroke-width="2"/><rect x="749.50" y="58.00" width="53.50" height="94.00" rx="5" fill="#fbfbfb" stroke="rgba(0,0,0,0.1)" stroke-width="2"/><rect x="749.50" y="58.00" width="53.50" height="94.00" rx="5" fill="#fbfbfb"/><text x="751.50" y="69.60" text-anchor="start" font-size="12" fill="#000000" font-family="Helvetica,Arial,sans-serif">Enter</text></g><g class="keycap"><rect x="1.00" y="109.00" width="92.50" height="52.00" rx="5" fill="#cccccc" stroke="#000000" stroke-width="2"/><rect x="7.00" y="112.00" width="80.50" height="40.00" rx="5" fill="#fbfbfb" stroke="rgba(0,0,0,0.1)" stroke-width="2"/><rect x="7.00" y="112.00" width="80.50" height="40.00" rx="5" fill="#fbfbfb"/><text x="9.00" y="123.60" text-anchor="start" font-size="12" fill="#000000" font-family="Helvetica,Arial,sans-serif">Caps Lock</text></g><g class="keycap"><rect x="95.50" y="109.00" width="52.00" height="52.00" rx="5" fill="#cccccc" stroke="#000000" stroke-width="2"/><rect x="101.50" y="112.00" width="40.00" height="40.00" rx="5" fill="#fbfbfb" stroke="rgba(0,0,0,0.1)" stroke-width="2"/><rect x="101.50" y="112.00" width="40.00" height="40.00" rx="5" fill="#fbfbfb"/><text x="103.50" y="123.60" text-anchor="start" font-size="12" fill="#000000" font-family="Helvetica,Arial,sans-serif">A</text></g><g class="keycap"><rect x="149.50" y="109.00" width="52.00" height="52.00" rx="5" fill="#cccccc" stroke="#000000" stroke-width="2"/><rect x="155.50" y="112.00" width="40.00" height="40.00" rx="5" fill="#fbfbfb" stroke="rgba(0,0,0,0.1)" stroke-width="2"/><rect x="155.50" y="112.00" width="40.00" height="40.00" rx="5" fill="#fbfbfb"/><text x="157.50" y="123.60" text-anchor="start" font-size="12" fill="#000000" font-family="Helvetica,Arial,sans-serif">S</text></g><g class="keycap"><rect x="203.50" y="109.00" width="52.00" height="52.00" rx="5" fill="#cccccc" stroke="#000000" stroke-width="2"/><rect x="209.50" y="112.00" width="40.00" height="40.00" rx="5" fill="#fbfbfb" stroke="rgba(0,0,0,0.1)" stroke-width="2"/><rect x="209.50" y="112.00" width="40.00" height="40.00" rx="5" fill="#fbfbfb"/><text x="211.50" y="123.60" text-anchor="start" font-size="12" fill="#000000" font-family="Helvetica,Arial,sans-serif">D</text></g><g class="keycap"><rect x="257.50" y="109.00" width="52.00" height="52.00" rx="5" fill="#cccccc" stroke="#000000" stroke-width="2"/><rect x="263.50" y="112.00" width="40.00" height="40.00" rx="5" fill="#fbfbfb" stroke="rgba(0,0,0,0.1)" stroke-width="2"/><rect x="263.50" y="112.00" width="40.00" height="40.00" rx="5" fill="#fbfbfb"/><text x="265.50" y="123.60" text-anchor="start" font-size="12" fill="#000000" font-family="Helvetica,Arial,sans-serif">F</text></g><g class="keycap"><rect x="311.50" y="109.00" width="52.00" height="52.00" rx="5" fill="#cccccc" stroke="#000000" stroke-width="2"/><rect x="317.50" y="112.00" width="40.00" height="40.00" rx="5" fill="#fbfbfb" stroke="rgba(0,0,0,0.1)" stroke-width="2"/><rect x="317.50" y="112.00" width="40.00" height="40.00" rx="5" fill="#fbfbfb"/><text x="319.50" y="123.60" text-anchor="start" font-size="12" fill="#000000" font-family="Helvetica,Arial,sans-serif">G</text></g><g class="keycap"><rect x="365.50" y="109.00" width="52.00" height="52.00" rx="5" fill="#cccccc" stroke="#000000" stroke-width="2"/><rect x="371.50" y="112.00" width="40.00" height="40.00" rx="5" fill="#fbfbfb" stroke="rgba(0,0,0,0.1)" stroke-width="2"/><rect x="371.50" y="112.00" width="40.00" height="40.00" rx="5" fill="#fbfbfb"/><text x="373.50" y="123.60" text-anchor="start" font-size="12" fill="#000000" font-family="Helvetica,Arial,sans-serif">H</text></g><g class="keycap"><rect x="419.50" y="109.00" width="52.00" height="52.00" rx="5" fill="#cccccc" stroke="#000000" stroke-width="2"/><rect x="425.50" y="112.00" width="40.00" height="40.00" rx="5" fill="#fbfbfb" stroke="rgba(0,0,0,0.1)" stroke-width="2"/><rect x="425.50" y="112.00" width="40.00" height="40.00" rx="5" fill="#fbfbfb"/><text x="427.50" y="123.60" text-anchor="start" font-size="12" fill="#000000" font-family="Helvetica,Arial,sans-serif">J</text></g><g class="keycap"><rect x="473.50" y="109.00" width="52.00" height="52.00" rx="5" fill="#cccccc" stroke="#000000" stroke-width="2"/><rect x="479.50" y="112.00" width="40.00" height="40.00" rx="5" fill="#fbfbfb" stroke="rgba(0,0,0,0.1)" stroke-width="2"/><rect x="479.50" y="112.00" width="40.00" height="40.00" rx="5" fill="#fbfbfb"/><text x="481.50" y="123.60" text-anchor="start" font-size="12" fill="#000000" font-family="Helvetica,Arial,sans-serif">K</text></g><g class="keycap"><rect x="527.50" y="109.00" width="52.00" height="52.00" rx="5" fill="#cccccc" stroke="#000000" stroke-width="2"/><rect x="533.50" y="112.00" width="40.00" height="40.00" rx="5" fill="#fbfbfb" stroke="rgba(0,0,0,0.1)" stroke-width="2"/><rect x="533.50" y="112.00" width="40.00" height="40.00" rx="5" fill="#fbfbfb"/><text x="535.50" y="123.60" text-anchor="start" font-size="12" fill="#000000" font-family="Helvetica,Arial,sans-serif">L</text></g><g class="keycap"><rect x="581.50" y="109.00" width="52.00" height="52.00" rx="5" fill="#cccccc" stroke="#000000" stroke-width="2"/><rect x="587.50" y="112.00" width="40.00" height="40.00" rx="5" fill="#fbfbfb" stroke="rgba(0,0,0,0.1)" stroke-width="2"/><rect x="587.50" y="112.00" width="40.00" height="40.00" rx="5" fill="#fbfbfb"/><text x="589.50" y="123.60" text-anchor="start" font-size="12" fill="#000000" font-family="Helvetica,Arial,sans-serif">:</text><text x="589.50" y="147.60" text-anchor="start" font-size="12" fill="#000000" font-family="Helvetica,Arial,sans-serif">;</text></g><g class="keycap"><rect x="635.50" y="109.00" width="52.00" height="52.00" rx="5" fill="#cccccc" stroke="#000000" stroke-width="2"/><rect x="641.50" y="112.00" width="40.00" height="40.00" rx="5" fill="#fbfbfb" stroke="rgba(0,0,0,0.1)" stroke-width="2"/><rect x="641.50" y="112.00" width="40.00" height="40.00" rx="5" fill="#fbfbfb"/><text x="643.50" y="123.60" text-anchor="start" font-size="12" fill="#000000" font-family="Helvetica,Arial,sans-serif">@</text><text x="643.50" y="147.60" text-anchor="start" font-size="12" fill="#000000" font-family="Helvetica,Arial,sans-serif">'</text></g><g class="keycap"><rect x="689.50" y="109.00" width="52.00" height="52.00" rx="5" fill="#cccccc" stroke="#000000" stroke-width="2"/><rect x="695.50" y="112.00" width="40.00" height="40.00" rx="5" fill="#fbfbfb" stroke="rgba(0,0,0,0.1)" stroke-width="2"/><rect x="695.50" y="112.00" width="40.00" height="40.00" rx="5" fill="#fbfbfb"/><text x="697.50" y="123.60" text-anchor="start" font-size="12" fill="#000000" font-family="Helvetica,Arial,sans-serif">~</text><text x="697.50" y="147.60" text-anchor="start" font-size="12" fill="#000000" font-family="Helvetica,Arial,sans-serif">#</text></g><g class="keycap"><rect x="1.00" y="163.00" width="65.50" height="52.00" rx="5" fill="#cccccc" stroke="#000000" stroke-width="2"/><rect x="7.00" y="166.00" width="53.50" height="40.00" rx="5" fill="#fbfbfb" stroke="rgba(0,0,0,0.1)" stroke-width="2"/><rect x="7.00" y="166.00" width="53.50" height="40.00" rx="5" fill="#fbfbfb"/><text x="9.00" y="177.60" text-anchor="start" font-size="12" fill="#000000" font-family="Helvetica,Arial,sans-serif">Shift</text></g><g class="keycap"><rect x="68.50" y="163.00" width="52.00" height="52.00" rx="5" fill="#cccccc" stroke="#000000" stroke-width="2"/><rect x="74.50" y="166.00" width="40.00" height="40.00" rx="5" fill="#fbfbfb" stroke="rgba(0,0,0,0.1)" stroke-width="2"/><rect x="74.50" y="166.00" width="40.00" height="40.00" rx="5" fill="#fbfbfb"/><text x="76.50" y="177.60" text-anchor="start" font-size="12" fill="#000000" font-family="Helvetica,Arial,sans-serif">|</text><text x="76.50" y="201.60" text-anchor="start" font-size="12" fill="#000000" font-family="Helvetica,Arial,sans-serif">\</text></g><g class="keycap"><rect x="122.50" y="163.00" width="52.00" height="52.00" rx="5" fill="#cccccc" stroke="#000000" stroke-width="2"/><rect x="128.50" y="166.00" width="40.00" height="40.00" rx="5" fill="#fbfbfb" stroke="rgba(0,0,0,0.1)" stroke-width="2"/><rect x="128.50" y="166.00" width="40.00" height="40.00" rx="5" fill="#fbfbfb"/><text x="130.50" y="177.60" text-anchor="start" font-size="12" fill="#000000" font-family="Helvetica,Arial,sans-serif">Z</text></g><g class="keycap"><rect x="176.50" y="163.00" width="52.00" height="52.00" rx="5" fill="#cccccc" stroke="#000000" stroke-width="2"/><rect x="182.50" y="166.00" width="40.00" height="40.00" rx="5" fill="#fbfbfb" stroke="rgba(0,0,0,0.1)" stroke-width="2"/><rect x="182.50" y="166.00" width="40.00" height="40.00" rx="5" fill="#fbfbfb"/><text x="184.50" y="177.60" text-anchor="start" font-size="12" fill="#000000" font-family="Helvetica,Arial,sans-serif">X</text></g><g class="keycap"><rect x="230.50" y="163.00" width="52.00" height="52.00" rx="5" fill="#cccccc" stroke="#000000" stroke-width="2"/><rect x="236.50" y="166.00" width="40.00" height="40.00" rx="5" fill="#fbfbfb" stroke="rgba(0,0,0,0.1)" stroke-width="2"/><rect x="236.50" y="166.00" width="40.00" height="40.00" rx="5" fill="#fbfbfb"/><text x="238.50" y="177.60" text-anchor="start" font-size="12" fill="#000000" font-family="Helvetica,Arial,sans-serif">C</text></g><g class="keycap"><rect x="284.50" y="163.00" width="52.00" height="52.00" rx="5" fill="#cccccc" stroke="#000000" stroke-width="2"/><rect x="290.50" y="166.00" width="40.00" height="40.00" rx="5" fill="#fbfbfb" stroke="rgba(0,0,0,0.1)" stroke-width="2"/><rect x="290.50" y="166.00" width="40.00" height="40.00" rx="5" fill="#fbfbfb"/><text x="292.50" y="177.60" text-anchor="start" font-size="12" fill="#000000" font-family="Helvetica,Arial,sans-serif">V</text></g><g class="keycap"><rect x="338.50" y="163.00" width="52.00" height="52.00" rx="5" fill="#cccccc" stroke="#000000" stroke-width="2"/><rect x="344.50" y="166.00" width="40.00" height="40.00" rx="5" fill="#fbfbfb" stroke="rgba(0,0,0,0.1)" stroke-width="2"/><rect x="344.50" y="166.00" width="40.00" height="40.00" rx="5" fill="#fbfbfb"/><text x="346.50" y="177.60" text-anchor="start" font-size="12" fill="#000000" font-family="Helvetica,Arial,sans-serif">B</text></g><g class="keycap"><rect x="392.50" y="163.00" width="52.00" height="52.00" rx="5" fill="#cccccc" stroke="#000000" stroke-width="2"/><rect x="398.50" y="166.00" width="40.00" height="40.00" rx="5" fill="#fbfbfb" stroke="rgba(0,0,0,0.1)" stroke-width="2"/><rect x="398.50" y="166.00" width="40.00" height="40.00" rx="5" fill="#fbfbfb"/><text x="400.50" y="177.60" text-anchor="start" font-size="12" fill="#000000" font-family="Helvetica,Arial,sans-serif">N</text></g><g class="keycap"><rect x="446.50" y="163.00" width="52.00" height="52.00" rx="5" fill="#cccccc" stroke="#000000" stroke-width="2"/><rect x="452.50" y="166.00" width="40.00" height="40.00" rx="5" fill="#fbfbfb" stroke="rgba(0,0,0,0.1)" stroke-width="2"/><rect x="452.50" y="166.00" width="40.00" height="40.00" rx="5" fill="#fbfbfb"/><text x="454.50" y="177.60" text-anchor="start" font-size="12" fill="#000000" font-family="Helvetica,Arial,sans-serif">M</text></g><g class="keycap"><rect x="500.50" y="163.00" width="52.00" height="52.00" rx="5" fill="#cccccc" stroke="#000000" stroke-width="2"/><rect x="506.50" y="166.00" width="40.00" height="40.00" rx="5" fill="#fbfbfb" stroke="rgba(0,0,0,0.1)" stroke-width="2"/><rect x="506.50" y="166.00" width="40.00" height="40.00" rx="5" fill="#fbfbfb"/><text x="508.50" y="177.60" text-anchor="start" font-size="12" fill="#000000" font-family="Helvetica,Arial,sans-serif">&lt;</text><text x="508.50" y="201.60" text-anchor="start" font-size="12" fill="#000000" font-family="Helvetica,Arial,sans-serif">,</text></g><g class="keycap"><rect x="554.50" y="163.00" width="52.00" height="52.00" rx="5" fill="#cccccc" stroke="#000000" stroke-width="2"/><rect x="560.50" y="166.00" width="40.00" height="40.00" rx="5" fill="#fbfbfb" stroke="rgba(0,0,0,0.1)" stroke-width="2"/><rect x="560.50" y="166.00" width="40.00" height="40.00" rx="5" fill="#fbfbfb"/><text x="562.50" y="177.60" text-anchor="start" font-size="12" fill="#000000" font-family="Helvetica,Arial,sans-serif">&gt;</text><text x="562.50" y="201.60" text-anchor="start" font-size="12" fill="#000000" font-family="Helvetica,Arial,sans-serif">.</text></g><g class="keycap"><rect x="608.50" y="163.00" width="52.00" height="52.00" rx="5" fill="#cccccc" stroke="#000000" stroke-width="2"/><rect x="614.50" y="166.00" width="40.00" height="40.00" rx="5" fill="#fbfbfb" stroke="rgba(0,0,0,0.1)" stroke-width="2"/><rect x="614.50" y="166.00" width="40.00" height="40.00" rx="5" fill="#fbfbfb"/><text x="616.50" y="177.60" text-anchor="start" font-size="12" fill="#000000" font-family="Helvetica,Arial,sans-serif">?</text><text x="616.50" y="201.60" text-anchor="start" font-size="12" fill="#000000" font-family="Helvetica,Arial,sans-serif">/</text></g><g class="keycap"><rect x="662.50" y="163.00" width="146.50" height="52.00" rx="5" fill="#cccccc" stroke="#000000" stroke-width="2"/><rect x="668.50" y="166.00" width="134.50" height="40.00" rx="5" fill="#fbfbfb" stroke="rgba(0,0,0,0.1)" stroke-width="2"/><rect x="668.50" y="166.00" width="134.50" height="40.00" rx="5" fill="#fbfbfb"/><text x="670.50" y="177.60" text-anchor="start" font-size="12" fill="#000000" font-family="Helvetica,Arial,sans-serif">Shift</text></g><g class="keycap"><rect x="1.00" y="217.00" width="65.50" height="52.00" rx="5" fill="#cccccc" stroke="#000000" stroke-width="2"/><rect x="7.00" y="220.00" width="53.50" height="40.00" rx="5" fill="#fbfbfb" stroke="rgba(0,0,0,0.1)" stroke-width="2"/><rect x="7.00" y="220.00" width="53.50" height="40.00" rx="5" fill="#fbfbfb"/><text x="9.00" y="231.60" text-anchor="start" font-size="12" fill="#000000" font-family="Helvetica,Arial,sans-serif">Ctrl</text></g><g class="keycap"><rect x="68.50" y="217.00" width="65.50" height="52.00" rx="5" fill="#cccccc" stroke="#000000" stroke-width="2"/><rect x="74.50" y="220.00" width="53.50" height="40.00" rx="5" fill="#fbfbfb" stroke="rgba(0,0,0,0.1)" stroke-width="2"/><rect x="74.50" y="220.00" width="53.50" height="40.00" rx="5" fill="#fbfbfb"/><text x="76.50" y="231.60" text-anchor="start" font-size="12" fill="#000000" font-family="Helvetica,Arial,sans-serif">Win</text></g><g class="keycap"><rect x="136.00" y="217.00" width="65.50" height="52.00" rx="5" fill="#cccccc" stroke="#000000" stroke-width="2"/><rect x="142.00" y="220.00" width="53.50" height="40.00" rx="5" fill="#fbfbfb" stroke="rgba(0,0,0,0.1)" stroke-width="2"/><rect x="142.00" y="220.00" width="53.50" height="40.00" rx="5" fill="#fbfbfb"/><text x="144.00" y="231.60" text-anchor="start" font-size="12" fill="#000000" font-family="Helvetica,Arial,sans-serif">Alt</text></g><g class="keycap"><rect x="203.50" y="217.00" width="335.50" height="52.00" rx="5" fill="#cccccc" stroke="#000000" stroke-width="2"/><rect x="209.50" y="220.00" width="323.50" height="40.00" rx="5" fill="#fbfbfb" stroke="rgba(0,0,0,0.1)" stroke-width="2"/><rect x="209.50" y="220.00" width="323.50" height="40.00" rx="5" fill="#fbfbfb"/></g><g class="keycap"><rect x="541.00" y="217.00" width="65.50" height="52.00" rx="5" fill="#cccccc" stroke="#000000" stroke-width="2"/><rect x="547.00" y="220.00" width="53.50" height="40.00" rx="5" fill="#fbfbfb" stroke="rgba(0,0,0,0.1)" stroke-width="2"/><rect x="547.00" y="220.00" width="53.50" height="40.00" rx="5" fill="#fbfbfb"/><text x="549.00" y="231.60" text-anchor="start" font-size="12" fill="#000000" font-family="Helvetica,Arial,sans-serif">AltGr</text></g><g class="keycap"><rect x="608.50" y="217.00" width="65.50" height="52.00" rx="5" fill="#cccccc" stroke="#000000" stroke-width="2"/><rect x="614.50" y="220.00" width="53.50" height="40.00" rx="5" fill="#fbfbfb" stroke="rgba(0,0,0,0.1)" stroke-width="2"/><rect x="614.50" y="220.00" width="53.50" height="40.00" rx="5" fill="#fbfbfb"/><text x="616.50" y="231.60" text-anchor="start" font-size="12" fill="#000000" font-family="Helvetica,Arial,sans-serif">Win</text></g><g class="keycap"><rect x="676.00" y="217.00" width="65.50" height="52.00" rx="5" fill="#cccccc" stroke="#000000" stroke-width="2"/><rect x="682.00" y="220.00" width="53.50" height="40.00" rx="5" fill="#fbfbfb" stroke="rgba(0,0,0,0.1)" stroke-width="2"/><rect x="682.00" y="220.00" width="53.50" height="40.00" rx="5" fill="#fbfbfb"/><text x="684.00" y="231.60" text-anchor="start" font-size="12" fill="#000000" font-family="Helvetica,Arial,sans-serif">Menu</text></g><g class="keycap"><rect x="743.50" y="217.00" width="65.50" height="52.00" rx="5" fill="#cccccc" stroke="#000000" stroke-width="2"/><rect x="749.50" y="220.00" width="53.50" height="40.00" rx="5" fill="#fbfbfb" stroke="rgba(0,0,0,0.1)" stroke-width="2"/><rect x="749.50" y="220.00" width="53.50" height="40.00" rx="5" fill="#fbfbfb"/><text x="751.50" y="231.60" text-anchor="start" font-size="12" fill="#000000" font-family="Helvetica,Arial,sans-serif">Ctrl</text></g></g></svg>