<svg xmlns="http://www.w3.org/2000/svg" width="678" height="246" viewBox="0 0 678 246" role="img"><title>Planck</title><g transform="translate(15.00,15.00)"><rect x="-5.00" y="-5.00" width="658.00" height="226.00" rx="6" fill="#eeeeee" stroke="#dddddd" stroke-width="1"/><g class="keycap"><rect x="1.00" y="1.00" width="52.00" height="52.00" rx="5" fill="#cccccc" stroke="#000000" stroke-width="2"/><rect x="7.00" y="4.00" width="40.00" height="40.00" rx="5" fill="#fbfbfb" stroke="rgba(0,0,0,0.1)" stroke-width="2"/><rect x="7.00" y="4.00" width="40.00" height="40.00" rx="5" fill="#fbfbfb"/><text x="27.00" y="28.32" text-anchor="middle" font-size="12" fill="#000000" font-family="Helvetica,Arial,sans-serif">Tab</text></g><g class="keycap"><rect x="55.00" y="1.00" width="52.00" height="52.00" rx="5" fill="#cccccc" stroke="#000000" stroke-width="2"/><rect x="61.00" y="4.00" width="40.00" height="40.00" rx="5" fill="#fbfbfb" stroke="rgba(0,0,0,0.1)" stroke-width="2"/><rect x="61.00" y="4.00" width="40.00" height="40.00" rx="5" fill="#fbfbfb"/><text x="81.00" y="28.32" text-anchor="middle" font-size="12" fill="#000000" font-family="Helvetica,Arial,sans-serif">Q</text></g><g class="keycap"><rect x="109.00" y="1.00" width="52.00" height="52.00" rx="5" fill="#cccccc" stroke="#000000" stroke-width="2"/><rect x="115.00" y="4.00" width="40.00" height="40.00" rx="5" fill="#fbfbfb" stroke="rgba(0,0,0,0.1)" stroke-width="2"/><rect x="115.00" y="4.00" width="40.00" height="40.00" rx="5" fill="#fbfbfb"/><text x="135.00" y="28.32" text-anchor="middle" font-size="12" fill="#000000" font-family="Helvetica,Arial,sans-serif">W</text></g><g class="keycap"><rect x="163.00" y="1.00" width="52.00" height="52.00" rx="5" fill="#cccccc" stroke="#000000" stroke-width="2"/><rect x="169.00" y="4.00" width="40.00" height="40.00" rx="5" fill="#fbfbfb" stroke="rgba(0,0,0,0.1)" stroke-width="2"/><rect x="169.00" y="4.00" width="40.00" height="40.00" rx="5" fill="#fbfbfb"/><text x="189.00" y="28.32" text-anchor="middle" font-size="12" fill="#000000" font-family="Helvetica,Arial,sans-serif">E</text></g><g class="keycap"><rect x="217.00" y="1.00" width="52.00" height="52.00" rx="5" fill="#cccccc" stroke="#000000" stroke-width="2"/><rect x="223.00" y="4.00" width="40.00" height="40.00" rx="5" fill="#fbfbfb" stroke="rgba(0,0,0,0.1)" stroke-width="2"/><rect x="223.00" y="4.00" width="40.00" height="40.00" rx="5" fill="#fbfbfb"/><text x="243.00" y="28.32" text-anchor="middle" font-size="12" fill="#000000" font-family="Helvetica,Arial,sans-serif">R</text></g><g class="keycap"><rect x="271.00" y="1.00" width="52.00" height="52.00" rx="5" fill="#cccccc" stroke="#000000" stroke-width="2"/><rect x="277.00" y="4.00" width="40.00" height="40.00" rx="5" fill="#fbfbfb" stroke="rgba(0,0,0,0.1)" stroke-width="2"/><rect x="277.00" y="4.00" width="40.00" height="40.00" rx="5" fill="#fbfbfb"/><text x="297.00" y="28.32" text-anchor="middle" font-size="12" fill="#000000" font-family="Helvetica,Arial,sans-serif">T</text></g><g class="keycap"><rect x="325.00" y="1.00" width="52.00" height="52.00" rx="5" fill="#cccccc" stroke="#000000" stroke-width="2"/><rect x="331.00" y="4.00" width="40.00" height="40.00" rx="5" fill="#fbfbfb" stroke="rgba(0,0,0,0.1)" stroke-width="2"/><rect x="331.00" y="4.00" width="40.00" height="40.00" rx="5" fill="#fbfbfb"/><text x="351.00" y="28.32" text-anchor="middle" font-size="12" fill="#000000" font-family="Helvetica,Arial,sans-serif">Y</text></g><g class="keycap"><rect x="379.00" y="1.00" width="52.00" height="52.00" rx="5" fill="#cccccc" stroke="#000000" stroke-width="2"/><rect x="385.00" y="4.00" width="40.00" height="40.00" rx="5" fill="#fbfbfb" stroke="rgba(0,0,0,0.1)" stroke-width="2"/><rect x="385.00" y="4.00" width="40.00" height="40.00" rx="5" fill="#fbfbfb"/><text x="405.00" y="28.32" text-anchor="middle" font-size="12" fill="#000000" font-family="Helvetica,Arial,sans-serif">U</text></g><g class="keycap"><rect x="433.00" y="1.00" width="52.00" height="52.00" rx="5" fill="#cccccc" stroke="#000000" stroke-width="2"/><rect x="439.00" y="4.00" width="40.00" height="40.00" rx="5" fill="#fbfbfb" stroke="rgba(0,0,0,0.1)" stroke-width="2"/><rect x="439.00" y="4.00" width="40.00" height="40.00" rx="5" fill="#fbfbfb"/><text x="459.00" y="28.32" text-anchor="middle" font-size="12" fill="#000000" font-family="Helvetica,Arial,sans-serif">I</text></g><g class="keycap"><rect x="487.00" y="1.00" width="52.00" height="52.00" rx="5" fill="#cccccc" stroke="#000000" stroke-width="2"/><rect x="493.00" y="4.00" width="40.00" height="40.00" rx="5" fill="#fbfbfb" stroke="rgba(0,0,0,0.1)" stroke-width="2"/><rect x="493.00" y="4.00" width="40.00" height="40.00" rx="5" fill="#fbfbfb"/><text x="513.00" y="28.32" text-anchor="middle" font-size="12" fill="#000000" font-family="Helvetica,Arial,sans-serif">O</text></g><g class="keycap"><rect x="541.00" y="1.00" width="52.00" height="52.00" rx="5" fill="#cccccc" stroke="#000000" stroke-width="2"/><rect x="547.00" y="4.00" width="40.00" height="40.00" rx="5" fill="#fbfbfb" stroke="rgba(0,0,0,0.1)" stroke-width="2"/><rect x="547.00" y="4.00" width="40.00" height="40.00" rx="5" fill="#fbfbfb"/><text x="567.00" y="28.32" text-anchor="middle" font-size="12" fill="#000000" font-family="Helvetica,Arial,sans-serif">P</text></g><g class="keycap"><rect x="595.00" y="1.00" width="52.00" height="52.00" rx="5" fill="#cccccc" stroke="#000000" stroke-width="2"/><rect x="601.00" y="4.00" width="40.00" height="40.00" rx="5" fill="#fbfbfb" stroke="rgba(0,0,0,0.1)" stroke-width="2"/><rect x="601.00" y="4.00" width="40.00" height="40.00" rx="5" fill="#fbfbfb"/><text x="621.00" y="28.32" text-anchor="middle" font-size="12" fill="#000000" font-family="Helvetica,Arial,sans-serif">Back Space</text></g><g class="keycap"><rect x="1.00" y="55.00" width="52.00" height="52.00" rx="5" fill="#cccccc" stroke="#000000" stroke-width="2"/><rect x="7.00" y="58.00" width="40.00" height="40.00" rx="5" fill="#fbfbfb" stroke="rgba(0,0,0,0.1)" stroke-width="2"/><rect x="7.00" y="58.00" width="40.00" height="40.00" rx="5" fill="#fbfbfb"/><text x="27.00" y="82.32" text-anchor="middle" font-size="12" fill="#000000" font-family="Helvetica,Arial,sans-serif">Esc</text></g><g class="keycap"><rect x="55.00" y="55.00" width="52.00" height="52.00" rx="5" fill="#cccccc" stroke="#000000" stroke-width="2"/><rect x="61.00" y="58.00" width="40.00" height="40.00" rx="5" fill="#fbfbfb" stroke="rgba(0,0,0,0.1)" stroke-width="2"/><rect x="61.00" y="58.00" width="40.00" height="40.00" rx="5" fill="#fbfbfb"/><text x="81.00" y="82.32" text-anchor="middle" font-size="12" fill="#000000" font-family="Helvetica,Arial,sans-serif">A</text></g><g class="keycap"><rect x="109.00" y="55.00" width="52.00" height="52.00" rx="5" fill="#cccccc" stroke="#000000" stroke-width="2"/><rect x="115.00" y="58.00" width="40.00" height="40.00" rx="5" fill="#fbfbfb" stroke="rgba(0,0,0,0.1)" stroke-width="2"/><rect x="115.00" y="58.00" width="40.00" height="40.00" rx="5" fill="#fbfbfb"/><text x="135.00" y="82.32" text-anchor="middle" font-size="12" fill="#000000" font-family="Helvetica,Arial,sans-serif">S</text></g><g class="keycap"><rect x="163.00" y="55.00" width="52.00" height="52.00" rx="5" fill="#cccccc" stroke="#000000" stroke-width="2"/><rect x="169.00" y="58.00" width="40.00" height="40.00" rx="5" fill="#fbfbfb" stroke="rgba(0,0,0,0.1)" stroke-width="2"/><rect x="169.00" y="58.00" width="40.00" height="40.00" rx="5" fill="#fbfbfb"/><text x="189.00" y="82.32" text-anchor="middle" font-size="12" fill="#000000" font-family="Helvetica,Arial,sans-serif">D</text></g><g class="keycap"><rect x="217.00" y="55.00" width="52.00" height="52.00" rx="5" fill="#cccccc" stroke="#000000" stroke-width="2"/><rect x="223.00" y="58.00" width="40.00" height="40.00" rx="5" fill="#fbfbfb" stroke="rgba(0,0,0,0.1)" stroke-width="2"/><rect x="223.00" y="58.00" width="40.00" height="40.00" rx="5" fill="#fbfbfb"/><text x="243.00" y="82.32" text-anchor="middle" font-size="12" fill="#000000" font-family="Helvetica,Arial,sans-serif">F</text></g><g class="keycap"><rect x="271.00" y="55.00" width="52.00" height="52.00" rx="5" fill="#cccccc" stroke="#000000" stroke-width="2"/><rect x="277.00" y="58.00" width="40.00" height="40.00" rx="5" fill="#fbfbfb" stroke="rgba(0,0,0,0.1)" stroke-width="2"/><rect x="277.00" y="58.00" width="40.00" height="40.00" rx="5" fill="#fbfbfb"/><text x="297.00" y="82.32" text-anchor="middle" font-size="12" fill="#000000" font-family="Helvetica,Arial,sans-serif">G</text></g><g class="keycap"><rect x="325.00" y="55.00" width="52.00" height="52.00" rx="5" fill="#cccccc" stroke="#000000" stroke-width="2"/><rect x="331.00" y="58.00" width="40.00" height="40.00" rx="5" fill="#fbfbfb" stroke="rgba(0,0,0,0.1)" stroke-width="2"/><rect x="331.00" y="58.00" width="40.00" height="40.00" rx="5" fill="#fbfbfb"/><text x="351.00" y="82.32" text-anchor="middle" font-size="12" fill="#000000" font-family="Helvetica,Arial,sans-serif">H</text></g><g class="keycap"><rect x="379.00" y="55.00" width="52.00" height="52.00" rx="5" fill="#cccccc" stroke="#000000" stroke-width="2"/><rect x="385.00" y="58.00" width="40.00" height="40.00" rx="5" fill="#fbfbfb" stroke="rgba(0,0,0,0.1)" stroke-width="2"/><rect x="385.00" y="58.00" width="40.00" height="40.00" rx="5" fill="#fbfbfb"/><text x="405.00" y="82.32" text-anchor="middle" font-size="12" fill="#000000" font-family="Helvetica,Arial,sans-serif">J</text></g><g class="keycap"><rect x="433.00" y="55.00" width="52.00" height="52.00" rx="5" fill="#cccccc" stroke="#000000" stroke-width="2"/><rect x="439.00" y="58.00" width="40.00" height="40.00" rx="5" fill="#fbfbfb" stroke="rgba(0,0,0,0.1)" stroke-width="2"/><rect x="439.00" y="58.00" width="40.00" height="40.00" rx="5" fill="#fbfbfb"/><text x="459.00" y="82.32" text-anchor="middle" font-size="12" fill="#000000" font-family="Helvetica,Arial,sans-serif">K</text></g><g class="keycap"><rect x="487.00" y="55.00" width="52.00" height="52.00" rx="5" fill="#cccccc" stroke="#000000" stroke-width="2"/><rect x="493.00" y="58.00" width="40.00" height="40.00" rx="5" fill="#fbfbfb" stroke="rgba(0,0,0,0.1)" stroke-width="2"/><rect x="493.00" y="58.00" width="40.00" height="40.00" rx="5" fill="#fbfbfb"/><text x="513.00" y="82.32" text-anchor="middle" font-size="12" fill="#000000" font-family="Helvetica,Arial,sans-serif">L</text></g><g class="keycap"><rect x="541.00" y="55.00" width="52.00" height="52.00" rx="5" fill="#cccccc" stroke="#000000" stroke-width="2"/><rect x="547.00" y="58.00" width="40.00" height="40.00" rx="5" fill="#fbfbfb" stroke="rgba(0,0,0,0.1)" stroke-width="2"/><rect x="547.00" y="58.00" width="40.00" height="40.00" rx="5" fill="#fbfbfb"/><text x="567.00" y="82.32" text-anchor="middle" font-size="12" fill="#000000" font-family="Helvetica,Arial,sans-serif">;</text></g><g class="keycap"><rect x="595.00" y="55.00" width="52.00" height="52.00" rx="5" fill="#cccccc" stroke="#000000" stroke-width="2"/><rect x="601.00" y="58.00" width="40.00" height="40.00" rx="5" fill="#fbfbfb" stroke="rgba(0,0,0,0.1)" stroke-width="2"/><rect x="601.00" y="58.00" width="40.00" height="40.00" rx="5" fill="#fbfbfb"/><text x="621.00" y="82.32" text-anchor="middle" font-size="12" fill="#000000" font-family="Helvetica,Arial,sans-serif">'</text></g><g class="keycap"><rect x="1.00" y="109.00" width="52.00" height="52.00" rx="5" fill="#cccccc" stroke="#000000" stroke-width="2"/><rect x="7.00" y="112.00" width="40.00" height="40.00" rx="5" fill="#fbfbfb" stroke="rgba(0,0,0,0.1)" stroke-width="2"/><rect x="7.00" y="112.00" width="40.00" height="40.00" rx="5" fill="#fbfbfb"/><text x="27.00" y="136.32" text-anchor="middle" font-size="12" fill="#000000" font-family="Helvetica,Arial,sans-serif">Shift</text></g><g class="keycap"><rect x="55.00" y="109.00" width="52.00" height="52.00" rx="5" fill="#cccccc" stroke="#000000" stroke-width="2"/><rect x="61.00" y="112.00" width="40.00" height="40.00" rx="5" fill="#fbfbfb" stroke="rgba(0,0,0,0.1)" stroke-width="2"/><rect x="61.00" y="112.00" width="40.00" height="40.00" rx="5" fill="#fbfbfb"/><text x="81.00" y="136.32" text-anchor="middle" font-size="12" fill="#000000" font-family="Helvetica,Arial,sans-serif">Z</text></g><g class="keycap"><rect x="109.00" y="109.00" width="52.00" height="52.00" rx="5" fill="#cccccc" stroke="#000000" stroke-width="2"/><rect x="115.00" y="112.00" width="40.00" height="40.00" rx="5" fill="#fbfbfb" stroke="rgba(0,0,0,0.1)" stroke-width="2"/><rect x="115.00" y="112.00" width="40.00" height="40.00" rx="5" fill="#fbfbfb"/><text x="135.00" y="136.32" text-anchor="middle" font-size="12" fill="#000000" font-family="Helvetica,Arial,sans-serif">X</text></g><g class="keycap"><rect x="163.00" y="109.00" width="52.00" height="52.00" rx="5" fill="#cccccc" stroke="#000000" stroke-width="2"/><rect x="169.00" y="112.00" width="40.00" height="40.00" rx="5" fill="#fbfbfb" stroke="rgba(0,0,0,0.1)" stroke-width="2"/><rect x="169.00" y="112.00" width="40.00" height="40.00" rx="5" fill="#fbfbfb"/><text x="189.00" y="136.32" text-anchor="middle" font-size="12" fill="#000000" font-family="Helvetica,Arial,sans-serif">C</text></g><g class="keycap"><rect x="217.00" y="109.00" width="52.00" height="52.00" rx="5" fill="#cccccc" stroke="#000000" stroke-width="2"/><rect x="223.00" y="112.00" width="40.00" height="40.00" rx="5" fill="#fbfbfb" stroke="rgba(0,0,0,0.1)" stroke-width="2"/><rect x="223.00" y="112.00" width="40.00" height="40.00" rx="5" fill="#fbfbfb"/><text x="243.00" y="136.32" text-anchor="middle" font-size="12" fill="#000000" font-family="Helvetica,Arial,sans-serif">V</text></g><g class="keycap"><rect x="271.00" y="109.00" width="52.00" height="52.00" rx="5" fill="#cccccc" stroke="#000000" stroke-width="2"/><rect x="277.00" y="112.00" width="40.00" height="40.00" rx="5" fill="#fbfbfb" stroke="rgba(0,0,0,0.1)" stroke-width="2"/><rect x="277.00" y="112.00" width="40.00" height="40.00" rx="5" fill="#fbfbfb"/><text x="297.00" y="136.32" text-anchor="middle" font-size="12" fill="#000000" font-family="Helvetica,Arial,sans-serif">B</text></g><g class="keycap"><rect x="325.00" y="109.00" width="52.00" height="52.00" rx="5" fill="#cccccc" stroke="#000000" stroke-width="2"/><rect x="331.00" y="112.00" width="40.00" height="40.00" rx="5" fill="#fbfbfb" stroke="rgba(0,0,0,0.1)" stroke-width="2"/><rect x="331.00" y="112.00" width="40.00" height="40.00" rx="5" fill="#fbfbfb"/><text x="351.00" y="136.32" text-anchor="middle" font-size="12" fill="#000000" font-family="Helvetica,Arial,sans-serif">N</text></g><g class="keycap"><rect x="379.00" y="109.00" width="52.00" height="52.00" rx="5" fill="#cccccc" stroke="#000000" stroke-width="2"/><rect x="385.00" y="112.00" width="40.00" height="40.00" rx="5" fill="#fbfbfb" stroke="rgba(0,0,0,0.1)" stroke-width="2"/><rect x="385.00" y="112.00" width="40.00" height="40.00" rx="5" fill="#fbfbfb"/><text x="405.00" y="136.32" text-anchor="middle" font-size="12" fill="#000000" font-family="Helvetica,Arial,sans-serif">M</text></g><g class="keycap"><rect x="433.00" y="109.00" width="52.00" height="52.00" rx="5" fill="#cccccc" stroke="#000000" stroke-width="2"/><rect x="439.00" y="112.00" width="40.00" height="40.00" rx="5" fill="#fbfbfb" stroke="rgba(0,0,0,0.1)" stroke-width="2"/><rect x="439.00" y="112.00" width="40.00" height="40.00" rx="5" fill="#fbfbfb"/><text x="459.00" y="136.32" text-anchor="middle" font-size="12" fill="#000000" font-family="Helvetica,Arial,sans-serif">,</text></g><g class="keycap"><rect x="487.00" y="109.00" width="52.00" height="52.00" rx="5" fill="#cccccc" stroke="#000000" stroke-width="2"/><rect x="493.00" y="112.00" width="40.00" height="40.00" rx="5" fill="#fbfbfb" stroke="rgba(0,0,0,0.1)" stroke-width="2"/><rect x="493.00" y="112.00" width="40.00" height="40.00" rx="5" fill="#fbfbfb"/><text x="513.00" y="136.32" text-anchor="middle" font-size="12" fill="#000000" font-family="Helvetica,Arial,sans-serif">.</text></g><g class="keycap"><rect x="541.00" y="109.00" width="52.00" height="52.00" rx="5" fill="#cccccc" stroke="#000000" stroke-width="2"/><rect x="547.00" y="112.00" width="40.00" height="40.00" rx="5" fill="#fbfbfb" stroke="rgba(0,0,0,0.1)" stroke-width="2"/><rect x="547.00" y="112.00" width="40.00" height="40.00" rx="5" fill="#fbfbfb"/><text x="567.00" y="136.32" text-anchor="middle" font-size="12" fill="#000000" font-family="Helvetica,Arial,sans-serif">/</text></g><g class="keycap"><rect x="595.00" y="109.00" width="52.00" height="52.00" rx="5" fill="#cccccc" stroke="#000000" stroke-width="2"/><rect x="601.00" y="112.00" width="40.00" height="40.00" rx="5" fill="#fbfbfb" stroke="rgba(0,0,0,0.1)" stroke-width="2"/><rect x="601.00" y="112.00" width="40.00" height="40.00" rx="5" fill="#fbfbfb"/><text x="621.00" y="136.32" text-anchor="middle" font-size="12" fill="#000000" font-family="Helvetica,Arial,sans-serif">Return</text></g><g class="keycap"><rect x="1.00" y="163.00" width="52.00" height="52.00" rx="5" fill="#cccccc" stroke="#000000" stroke-width="2"/><rect x="7.00" y="166.00" width="40.00" height="40.00" rx="5" fill="#fbfbfb" stroke="rgba(0,0,0,0.1)" stroke-width="2"/><rect x="7.00" y="166.00" width="40.00" height="40.00" rx="5" fill="#fbfbfb"/></g><g class="keycap"><rect x="55.00" y="163.00" width="52.00" height="52.00" rx="5" fill="#cccccc" stroke="#000000" stroke-width="2"/><rect x="61.00" y="166.00" width="40.00" height="40.00" rx="5" fill="#fbfbfb" stroke="rgba(0,0,0,0.1)" stroke-width="2"/><rect x="61.00" y="166.00" width="40.00" height="40.00" rx="5" fill="#fbfbfb"/><text x="81.00" y="190.32" text-anchor="middle" font-size="12" fill="#000000" font-family="Helvetica,Arial,sans-serif">Ctrl</text></g><g class="keycap"><rect x="109.00" y="163.00" width="52.00" height="52.00" rx="5" fill="#cccccc" stroke="#000000" stroke-width="2"/><rect x="115.00" y="166.00" width="40.00" height="40.00" rx="5" fill="#fbfbfb" stroke="rgba(0,0,0,0.1)" stroke-width="2"/><rect x="115.00" y="166.00" width="40.00" height="40.00" rx="5" fill="#fbfbfb"/><text x="135.00" y="190.32" text-anchor="middle" font-size="12" fill="#000000" font-family="Helvetica,Arial,sans-serif">Alt</text></g><g class="keycap"><rect x="163.00" y="163.00" width="52.00" height="52.00" rx="5" fill="#cccccc" stroke="#000000" stroke-width="2"/><rect x="169.00" y="166.00" width="40.00" height="40.00" rx="5" fill="#fbfbfb" stroke="rgba(0,0,0,0.1)" stroke-width="2"/><rect x="169.00" y="166.00" width="40.00" height="40.00" rx="5" fill="#fbfbfb"/><text x="189.00" y="190.32" text-anchor="middle" font-size="12" fill="#000000" font-family="Helvetica,Arial,sans-serif">Super</text></g><g class="keycap"><rect x="217.00" y="163.00" width="52.00" height="52.00" rx="5" fill="#cccccc" stroke="#000000" stroke-width="2"/><rect x="223.00" y="166.00" width="40.00" height="40.00" rx="5" fill="#fbfbfb" stroke="rgba(0,0,0,0.1)" stroke-width="2"/><rect x="223.00" y="166.00" width="40.00" height="40.00" rx="5" fill="#fbfbfb"/><text x="243.00" y="190.32" text-anchor="middle" font-size="12" fill="#000000" font-family="Helvetica,Arial,sans-serif">⇓</text></g><g class="keycap"><rect x="271.00" y="163.00" width="106.00" height="52.00" rx="5" fill="#cccccc" stroke="#000000" stroke-width="2"/><rect x="277.00" y="166.00" width="94.00" height="40.00" rx="5" fill="#fbfbfb" stroke="rgba(0,0,0,0.1)" stroke-width="2"/><rect x="277.00" y="166.00" width="94.00" height="40.00" rx="5" fill="#fbfbfb"/></g><g class="keycap"><rect x="379.00" y="163.00" width="52.00" height="52.00" rx="5" fill="#cccccc" stroke="#000000" stroke-width="2"/><rect x="385.00" y="166.00" width="40.00" height="40.00" rx="5" fill="#fbfbfb" stroke="rgba(0,0,0,0.1)" stroke-width="2"/><rect x="385.00" y="166.00" width="40.00" height="40.00" rx="5" fill="#fbfbfb"/><text x="405.00" y="190.32" text-anchor="middle" font-size="12" fill="#000000" font-family="Helvetica,Arial,sans-serif">⇑</text></g><g class="keycap"><rect x="433.00" y="163.00" width="52.00" height="52.00" rx="5" fill="#cccccc" stroke="#000000" stroke-width="2"/><rect x="439.00" y="166.00" width="40.00" height="40.00" rx="5" fill="#fbfbfb" stroke="rgba(0,0,0,0.1)" stroke-width="2"/><rect x="439.00" y="166.00" width="40.00" height="40.00" rx="5" fill="#fbfbfb"/><text x="459.00" y="190.32" text-anchor="middle" font-size="12" fill="#000000" font-family="Helvetica,Arial,sans-serif">←</text></g><g class="keycap"><rect x="487.00" y="163.00" width="52.00" height="52.00" rx="5" fill="#cccccc" stroke="#000000" stroke-width="2"/><rect x="493.00" y="166.00" width="40.00" height="40.00" rx="5" fill="#fbfbfb" stroke="rgba(0,0,0,0.1)" stroke-width="2"/><rect x="493.00" y="166.00" width="40.00" height="40.00" rx="5" fill="#fbfbfb"/><text x="513.00" y="190.32" text-anchor="middle" font-size="12" fill="#000000" font-family="Helvetica,Arial,sans-serif">↓</text></g><g class="keycap"><rect x="541.00" y="163.00" width="52.00" height="52.00" rx="5" fill="#cccccc" stroke="#000000" stroke-width="2"/><rect x="547.00" y="166.00" width="40.00" height="40.00" rx="5" fill="#fbfbfb" stroke="rgba(0,0,0,0.1)" stroke-width="2"/><rect x="547.00" y="166.00" width="40.00" height="40.00" rx="5" fill="#fbfbfb"/><text x="567.00" y="190.32" text-anchor="middle" font-size="12" fill="#000000" font-family="Helvetica,Arial,sans-serif">↑</text></g><g class="keycap"><rect x="595.00" y="163.00" width="52.00" height="52.00" rx="5" fill="#cccccc" stroke="#000000" stroke-width="2"/><rect x="601.00" y="166.00" width="40.00" height="40.00" rx="5" fill="#fbfbfb" stroke="rgba(0,0,0,0.1)" stroke-width="2"/><rect x="601.00" y="166.00" width="40.00" height="40.00" rx="5" fill="#fbfbfb"/><text x="621.00" y="190.32" text-anchor="middle" font-size="12" fill="#000000" font-family="Helvetica,Arial,sans-serif">→</text></g></g></svg>