<svg xmlns="http://www.w3.org/2000/svg" width="813" height="346" viewBox="0 0 813 346" role="img"><title>Apple Wireless</title><g transform="translate(15.00,-25.50)"><rect x="-5.00" y="35.50" width="793.00" height="326.50" rx="6" fill="#dbdbdb" stroke="#dddddd" stroke-width="1"/><g class="keycap"><rect x="4.00" y="44.50" width="47.93" height="32.50" rx="4" fill="#cccccc" stroke="#000000" stroke-width="2"/><rect x="5.00" y="45.50" width="45.93" height="28.50" rx="4" fill="#fbfbfb" stroke="rgba(0,0,0,0.1)" stroke-width="2"/><rect x="5.00" y="45.50" width="45.93" height="28.50" rx="4" fill="#fbfbfb"/><text x="27.96" y="63.35" text-anchor="middle" font-size="10" fill="#7c7c7c" font-family="Helvetica,Arial,sans-serif">esc</text></g><g class="keycap"><rect x="59.93" y="44.50" width="47.93" height="32.50" rx="4" fill="#cccccc" stroke="#000000" stroke-width="2"/><rect x="60.93" y="45.50" width="45.93" height="28.50" rx="4" fill="#fbfbfb" stroke="rgba(0,0,0,0.1)" stroke-width="2"/><rect x="60.93" y="45.50" width="45.93" height="28.50" rx="4" fill="#fbfbfb"/><text x="103.86" y="69.40" text-anchor="end" font-size="8" fill="#7c7c7c" font-family="Helvetica,Arial,sans-serif">F1</text></g><g class="keycap"><rect x="115.86" y="44.50" width="47.93" height="32.50" rx="4" fill="#cccccc" stroke="#000000" stroke-width="2"/><rect x="116.86" y="45.50" width="45.93" height="28.50" rx="4" fill="#fbfbfb" stroke="rgba(0,0,0,0.1)" stroke-width="2"/><rect x="116.86" y="45.50" width="45.93" height="28.50" rx="4" fill="#fbfbfb"/><text x="159.78" y="69.40" text-anchor="end" font-size="8" fill="#7c7c7c" font-family="Helvetica,Arial,sans-serif">F2</text></g><g class="keycap"><rect x="171.78" y="44.50" width="47.93" height="32.50" rx="4" fill="#cccccc" stroke="#000000" stroke-width="2"/><rect x="172.78" y="45.50" width="45.93" height="28.50" rx="4" fill="#fbfbfb" stroke="rgba(0,0,0,0.1)" stroke-width="2"/><rect x="172.78" y="45.50" width="45.93" height="28.50" rx="4" fill="#fbfbfb"/><text x="215.71" y="69.40" text-anchor="end" font-size="8" fill="#7c7c7c" font-family="Helvetica,Arial,sans-serif">F3</text></g><g class="keycap"><rect x="227.71" y="44.50" width="47.93" height="32.50" rx="4" fill="#cccccc" stroke="#000000" stroke-width="2"/><rect x="228.71" y="45.50" width="45.93" height="28.50" rx="4" fill="#fbfbfb" stroke="rgba(0,0,0,0.1)" stroke-width="2"/><rect x="228.71" y="45.50" width="45.93" height="28.50" rx="4" fill="#fbfbfb"/><text x="271.64" y="69.40" text-anchor="end" font-size="8" fill="#7c7c7c" font-family="Helvetica,Arial,sans-serif">F4</text></g><g class="keycap"><rect x="283.64" y="44.50" width="47.93" height="32.50" rx="4" fill="#cccccc" stroke="#000000" stroke-width="2"/><rect x="284.64" y="45.50" width="45.93" height="28.50" rx="4" fill="#fbfbfb" stroke="rgba(0,0,0,0.1)" stroke-width="2"/><rect x="284.64" y="45.50" width="45.93" height="28.50" rx="4" fill="#fbfbfb"/><text x="327.57" y="69.40" text-anchor="end" font-size="8" fill="#7c7c7c" font-family="Helvetica,Arial,sans-serif">F5</text></g><g class="keycap"><rect x="339.57" y="44.50" width="47.93" height="32.50" rx="4" fill="#cccccc" stroke="#000000" stroke-width="2"/><rect x="340.57" y="45.50" width="45.93" height="28.50" rx="4" fill="#fbfbfb" stroke="rgba(0,0,0,0.1)" stroke-width="2"/><rect x="340.57" y="45.50" width="45.93" height="28.50" rx="4" fill="#fbfbfb"/><text x="383.49" y="69.40" text-anchor="end" font-size="8" fill="#7c7c7c" font-family="Helvetica,Arial,sans-serif">F6</text></g><g class="keycap"><rect x="395.49" y="44.50" width="47.93" height="32.50" rx="4" fill="#cccccc" stroke="#000000" stroke-width="2"/><rect x="396.49" y="45.50" width="45.93" height="28.50" rx="4" fill="#fbfbfb" stroke="rgba(0,0,0,0.1)" stroke-width="2"/><rect x="396.49" y="45.50" width="45.93" height="28.50" rx="4" fill="#fbfbfb"/><text x="439.42" y="69.40" text-anchor="end" font-size="8" fill="#7c7c7c" font-family="Helvetica,Arial,sans-serif">F7</text></g><g class="keycap"><rect x="451.42" y="44.50" width="47.93" height="32.50" rx="4" fill="#cccccc" stroke="#000000" stroke-width="2"/><rect x="452.42" y="45.50" width="45.93" height="28.50" rx="4" fill="#fbfbfb" stroke="rgba(0,0,0,0.1)" stroke-width="2"/><rect x="452.42" y="45.50" width="45.93" height="28.50" rx="4" fill="#fbfbfb"/><text x="495.35" y="69.40" text-anchor="end" font-size="8" fill="#7c7c7c" font-family="Helvetica,Arial,sans-serif">F8</text></g><g class="keycap"><rect x="507.35" y="44.50" width="47.93" height="32.50" rx="4" fill="#cccccc" stroke="#000000" stroke-width="2"/><rect x="508.35" y="45.50" width="45.93" height="28.50" rx="4" fill="#fbfbfb" stroke="rgba(0,0,0,0.1)" stroke-width="2"/><rect x="508.35" y="45.50" width="45.93" height="28.50" rx="4" fill="#fbfbfb"/><text x="551.28" y="69.40" text-anchor="end" font-size="8" fill="#7c7c7c" font-family="Helvetica,Arial,sans-serif">F9</text></g><g class="keycap"><rect x="563.28" y="44.50" width="47.93" height="32.50" rx="4" fill="#cccccc" stroke="#000000" stroke-width="2"/><rect x="564.28" y="45.50" width="45.93" height="28.50" rx="4" fill="#fbfbfb" stroke="rgba(0,0,0,0.1)" stroke-width="2"/><rect x="564.28" y="45.50" width="45.93" height="28.50" rx="4" fill="#fbfbfb"/><text x="607.21" y="69.40" text-anchor="end" font-size="8" fill="#7c7c7c" font-family="Helvetica,Arial,sans-serif">F10</text></g><g class="keycap"><rect x="619.21" y="44.50" width="47.93" height="32.50" rx="4" fill="#cccccc" stroke="#000000" stroke-width="2"/><rect x="620.21" y="45.50" width="45.93" height="28.50" rx="4" fill="#fbfbfb" stroke="rgba(0,0,0,0.1)" stroke-width="2"/><rect x="620.21" y="45.50" width="45.93" height="28.50" rx="4" fill="#fbfbfb"/><text x="663.13" y="69.40" text-anchor="end" font-size="8" fill="#7c7c7c" font-family="Helvetica,Arial,sans-serif">F11</text></g><g class="keycap"><rect x="675.13" y="44.50" width="47.93" height="32.50" rx="4" fill="#cccccc" stroke="#000000" stroke-width="2"/><rect x="676.13" y="45.50" width="45.93" height="28.50" rx="4" fill="#fbfbfb" stroke="rgba(0,0,0,0.1)" stroke-width="2"/><rect x="676.13" y="45.50" width="45.93" height="28.50" rx="4" fill="#fbfbfb"/><text x="719.06" y="69.40" text-anchor="end" font-size="8" fill="#7c7c7c" font-family="Helvetica,Arial,sans-serif">F12</text></g><g class="keycap"><rect x="731.06" y="44.50" width="47.93" height="32.50" rx="4" fill="#cccccc" stroke="#000000" stroke-width="2"/><rect x="732.06" y="45.50" width="45.93" height="28.50" rx="4" fill="#fbfbfb" stroke="rgba(0,0,0,0.1)" stroke-width="2"/><rect x="732.06" y="45.50" width="45.93" height="28.50" rx="4" fill="#fbfbfb"/></g><g class="keycap"><rect x="4.00" y="85.00" width="46.00" height="46.00" rx="4" fill="#cccccc" stroke="#000000" stroke-width="2"/><rect x="5.00" y="86.00" width="44.00" height="42.00" rx="4" fill="#fbfbfb" stroke="rgba(0,0,0,0.1)" stroke-width="2"/><rect x="5.00" y="86.00" width="44.00" height="42.00" rx="4" fill="#fbfbfb"/><text x="27.00" y="121.80" text-anchor="middle" font-size="16" fill="#7c7c7c" font-family="Helvetica,Arial,sans-serif">`</text></g><g class="keycap"><rect x="58.00" y="85.00" width="46.00" height="46.00" rx="4" fill="#cccccc" stroke="#000000" stroke-width="2"/><rect x="59.00" y="86.00" width="44.00" height="42.00" rx="4" fill="#fbfbfb" stroke="rgba(0,0,0,0.1)" stroke-width="2"/><rect x="59.00" y="86.00" width="44.00" height="42.00" rx="4" fill="#fbfbfb"/><text x="81.00" y="101.80" text-anchor="middle" font-size="16" fill="#7c7c7c" font-family="Helvetica,Arial,sans-serif">!</text><text x="81.00" y="121.80" text-anchor="middle" font-size="16" fill="#7c7c7c" font-family="Helvetica,Arial,sans-serif">1</text></g><g class="keycap"><rect x="112.00" y="85.00" width="46.00" height="46.00" rx="4" fill="#cccccc" stroke="#000000" stroke-width="2"/><rect x="113.00" y="86.00" width="44.00" height="42.00" rx="4" fill="#fbfbfb" stroke="rgba(0,0,0,0.1)" stroke-width="2"/><rect x="113.00" y="86.00" width="44.00" height="42.00" rx="4" fill="#fbfbfb"/><text x="135.00" y="101.80" text-anchor="middle" font-size="16" fill="#7c7c7c" font-family="Helvetica,Arial,sans-serif">@</text><text x="135.00" y="121.80" text-anchor="middle" font-size="16" fill="#7c7c7c" font-family="Helvetica,Arial,sans-serif">2</text></g><g class="keycap"><rect x="166.00" y="85.00" width="46.00" height="46.00" rx="4" fill="#cccccc" stroke="#000000" stroke-width="2"/><rect x="167.00" y="86.00" width="44.00" height="42.00" rx="4" fill="#fbfbfb" stroke="rgba(0,0,0,0.1)" stroke-width="2"/><rect x="167.00" y="86.00" width="44.00" height="42.00" rx="4" fill="#fbfbfb"/><text x="189.00" y="101.80" text-anchor="middle" font-size="16" fill="#7c7c7c" font-family="Helvetica,Arial,sans-serif">#</text><text x="189.00" y="121.80" text-anchor="middle" font-size="16" fill="#7c7c7c" font-family="Helvetica,Arial,sans-serif">3</text></g><g class="keycap"><rect x="220.00" y="85.00" width="46.00" height="46.00" rx="4" fill="#cccccc" stroke="#000000" stroke-width="2"/><rect x="221.00" y="86.00" width="44.00" height="42.00" rx="4" fill="#fbfbfb" stroke="rgba(0,0,0,0.1)" stroke-width="2"/><rect x="221.00" y="86.00" width="44.00" height="42.00" rx="4" fill="#fbfbfb"/><text x="243.00" y="101.80" text-anchor="middle" font-size="16" fill="#7c7c7c" font-family="Helvetica,Arial,sans-serif">$</text><text x="243.00" y="121.80" text-anchor="middle" font-size="16" fill="#7c7c7c" font-family="Helvetica,Arial,sans-serif">4</text></g><g class="keycap"><rect x="274.00" y="85.00" width="46.00" height="46.00" rx="4" fill="#cccccc" stroke="#000000" stroke-width="2"/><rect x="275.00" y="86.00" width="44.00" height="42.00" rx="4" fill="#fbfbfb" stroke="rgba(0,0,0,0.1)" stroke-width="2"/><rect x="275.00" y="86.00" width="44.00" height="42.00" rx="4" fill="#fbfbfb"/><text x="297.00" y="101.80" text-anchor="middle" font-size="16" fill="#7c7c7c" font-family="Helvetica,Arial,sans-serif">%</text><text x="297.00" y="121.80" text-anchor="middle" font-size="16" fill="#7c7c7c" font-family="Helvetica,Arial,sans-serif">5</text></g><g class="keycap"><rect x="328.00" y="85.00" width="46.00" height="46.00" rx="4" fill="#cccccc" stroke="#000000" stroke-width="2"/><rect x="329.00" y="86.00" width="44.00" height="42.00" rx="4" fill="#fbfbfb" stroke="rgba(0,0,0,0.1)" stroke-width="2"/><rect x="329.00" y="86.00" width="44.00" height="42.00" rx="4" fill="#fbfbfb"/><text x="351.00" y="101.80" text-anchor="middle" font-size="16" fill="#7c7c7c" font-family="Helvetica,Arial,sans-serif">^</text><text x="351.00" y="121.80" text-anchor="middle" font-size="16" fill="#7c7c7c" font-family="Helvetica,Arial,sans-serif">6</text></g><g class="keycap"><rect x="382.00" y="85.00" width="46.00" height="46.00" rx="4" fill="#cccccc" stroke="#000000" stroke-width="2"/><rect x="383.00" y="86.00" width="44.00" height="42.00" rx="4" fill="#fbfbfb" stroke="rgba(0,0,0,0.1)" stroke-width="2"/><rect x="383.00" y="86.00" width="44.00" height="42.00" rx="4" fill="#fbfbfb"/><text x="405.00" y="101.80" text-anchor="middle" font-size="16" fill="#7c7c7c" font-family="Helvetica,Arial,sans-serif">&amp;</text><text x="405.00" y="121.80" text-anchor="middle" font-size="16" fill="#7c7c7c" font-family="Helvetica,Arial,sans-serif">7</text></g><g class="keycap"><rect x="436.00" y="85.00" width="46.00" height="46.00" rx="4" fill="#cccccc" stroke="#000000" stroke-width="2"/><rect x="437.00" y="86.00" width="44.00" height="42.00" rx="4" fill="#fbfbfb" stroke="rgba(0,0,0,0.1)" stroke-width="2"/><rect x="437.00" y="86.00" width="44.00" height="42.00" rx="4" fill="#fbfbfb"/><text x="459.00" y="101.80" text-anchor="middle" font-size="16" fill="#7c7c7c" font-family="Helvetica,Arial,sans-serif">*</text><text x="459.00" y="121.80" text-anchor="middle" font-size="16" fill="#7c7c7c" font-family="Helvetica,Arial,sans-serif">8</text></g><g class="keycap"><rect x="490.00" y="85.00" width="46.00" height="46.00" rx="4" fill="#cccccc" stroke="#000000" stroke-width="2"/><rect x="491.00" y="86.00" width="44.00" height="42.00" rx="4" fill="#fbfbfb" stroke="rgba(0,0,0,0.1)" stroke-width="2"/><rect x="491.00" y="86.00" width="44.00" height="42.00" rx="4" fill="#fbfbfb"/><text x="513.00" y="101.80" text-anchor="middle" font-size="16" fill="#7c7c7c" font-family="Helvetica,Arial,sans-serif">(</text><text x="513.00" y="121.80" text-anchor="middle" font-size="16" fill="#7c7c7c" font-family="Helvetica,Arial,sans-serif">9</text></g><g class="keycap"><rect x="544.00" y="85.00" width="46.00" height="46.00" rx="4" fill="#cccccc" stroke="#000000" stroke-width="2"/><rect x="545.00" y="86.00" width="44.00" height="42.00" rx="4" fill="#fbfbfb" stroke="rgba(0,0,0,0.1)" stroke-width="2"/><rect x="545.00" y="86.00" width="44.00" height="42.00" rx="4" fill="#fbfbfb"/><text x="567.00" y="101.80" text-anchor="middle" font-size="16" fill="#7c7c7c" font-family="Helvetica,Arial,sans-serif">)</text><text x="567.00" y="121.80" text-anchor="middle" font-size="16" fill="#7c7c7c" font-family="Helvetica,Arial,sans-serif">0</text></g><g class="keycap"><rect x="598.00" y="85.00" width="46.00" height="46.00" rx="4" fill="#cccccc" stroke="#000000" stroke-width="2"/><rect x="599.00" y="86.00" width="44.00" height="42.00" rx="4" fill="#fbfbfb" stroke="rgba(0,0,0,0.1)" stroke-width="2"/><rect x="599.00" y="86.00" width="44.00" height="42.00" rx="4" fill="#fbfbfb"/><text x="621.00" y="101.80" text-anchor="middle" font-size="16" fill="#7c7c7c" font-family="Helvetica,Arial,sans-serif">_</text><text x="621.00" y="121.80" text-anchor="middle" font-size="16" fill="#7c7c7c" font-family="Helvetica,Arial,sans-serif">-</text></g><g class="keycap"><rect x="652.00" y="85.00" width="46.00" height="46.00" rx="4" fill="#cccccc" stroke="#000000" stroke-width="2"/><rect x="653.00" y="86.00" width="44.00" height="42.00" rx="4" fill="#fbfbfb" stroke="rgba(0,0,0,0.1)" stroke-width="2"/><rect x="653.00" y="86.00" width="44.00" height="42.00" rx="4" fill="#fbfbfb"/><text x="675.00" y="101.80" text-anchor="middle" font-size="16" fill="#7c7c7c" font-family="Helvetica,Arial,sans-serif">+</text><text x="675.00" y="121.80" text-anchor="middle" font-size="16" fill="#7c7c7c" font-family="Helvetica,Arial,sans-serif">=</text></g><g class="keycap"><rect x="706.00" y="85.00" width="73.00" height="46.00" rx="4" fill="#cccccc" stroke="#000000" stroke-width="2"/><rect x="707.00" y="86.00" width="71.00" height="42.00" rx="4" fill="#fbfbfb" stroke="rgba(0,0,0,0.1)" stroke-width="2"/><rect x="707.00" y="86.00" width="71.00" height="42.00" rx="4" fill="#fbfbfb"/><text x="775.00" y="123.00" text-anchor="end" font-size="10" fill="#7c7c7c" font-family="Helvetica,Arial,sans-serif">delete</text></g><g class="keycap"><rect x="4.00" y="139.00" width="73.00" height="46.00" rx="4" fill="#cccccc" stroke="#000000" stroke-width="2"/><rect x="5.00" y="140.00" width="71.00" height="42.00" rx="4" fill="#fbfbfb" stroke="rgba(0,0,0,0.1)" stroke-width="2"/><rect x="5.00" y="140.00" width="71.00" height="42.00" rx="4" fill="#fbfbfb"/><text x="8.00" y="177.00" text-anchor="start" font-size="10" fill="#7c7c7c" font-family="Helvetica,Arial,sans-serif">tab</text></g><g class="keycap"><rect x="85.00" y="139.00" width="46.00" height="46.00" rx="4" fill="#cccccc" stroke="#000000" stroke-width="2"/><rect x="86.00" y="140.00" width="44.00" height="42.00" rx="4" fill="#fbfbfb" stroke="rgba(0,0,0,0.1)" stroke-width="2"/><rect x="86.00" y="140.00" width="44.00" height="42.00" rx="4" fill="#fbfbfb"/><text x="108.00" y="166.76" text-anchor="middle" font-size="16" fill="#7c7c7c" font-family="Helvetica,Arial,sans-serif">Q</text></g><g class="keycap"><rect x="139.00" y="139.00" width="46.00" height="46.00" rx="4" fill="#cccccc" stroke="#000000" stroke-width="2"/><rect x="140.00" y="140.00" width="44.00" height="42.00" rx="4" fill="#fbfbfb" stroke="rgba(0,0,0,0.1)" stroke-width="2"/><rect x="140.00" y="140.00" width="44.00" height="42.00" rx="4" fill="#fbfbfb"/><text x="162.00" y="166.76" text-anchor="middle" font-size="16" fill="#7c7c7c" font-family="Helvetica,Arial,sans-serif">W</text></g><g class="keycap"><rect x="193.00" y="139.00" width="46.00" height="46.00" rx="4" fill="#cccccc" stroke="#000000" stroke-width="2"/><rect x="194.00" y="140.00" width="44.00" height="42.00" rx="4" fill="#fbfbfb" stroke="rgba(0,0,0,0.1)" stroke-width="2"/><rect x="194.00" y="140.00" width="44.00" height="42.00" rx="4" fill="#fbfbfb"/><text x="216.00" y="166.76" text-anchor="middle" font-size="16" fill="#7c7c7c" font-family="Helvetica,Arial,sans-serif">E</text></g><g class="keycap"><rect x="247.00" y="139.00" width="46.00" height="46.00" rx="4" fill="#cccccc" stroke="#000000" stroke-width="2"/><rect x="248.00" y="140.00" width="44.00" height="42.00" rx="4" fill="#fbfbfb" stroke="rgba(0,0,0,0.1)" stroke-width="2"/><rect x="248.00" y="140.00" width="44.00" height="42.00" rx="4" fill="#fbfbfb"/><text x="270.00" y="166.76" text-anchor="middle" font-size="16" fill="#7c7c7c" font-family="Helvetica,Arial,sans-serif">R</text></g><g class="keycap"><rect x="301.00" y="139.00" width="46.00" height="46.00" rx="4" fill="#cccccc" stroke="#000000" stroke-width="2"/><rect x="302.00" y="140.00" width="44.00" height="42.00" rx="4" fill="#fbfbfb" stroke="rgba(0,0,0,0.1)" stroke-width="2"/><rect x="302.00" y="140.00" width="44.00" height="42.00" rx="4" fill="#fbfbfb"/><text x="324.00" y="166.76" text-anchor="middle" font-size="16" fill="#7c7c7c" font-family="Helvetica,Arial,sans-serif">T</text></g><g class="keycap"><rect x="355.00" y="139.00" width="46.00" height="46.00" rx="4" fill="#cccccc" stroke="#000000" stroke-width="2"/><rect x="356.00" y="140.00" width="44.00" height="42.00" rx="4" fill="#fbfbfb" stroke="rgba(0,0,0,0.1)" stroke-width="2"/><rect x="356.00" y="140.00" width="44.00" height="42.00" rx="4" fill="#fbfbfb"/><text x="378.00" y="166.76" text-anchor="middle" font-size="16" fill="#7c7c7c" font-family="Helvetica,Arial,sans-serif">Y</text></g><g class="keycap"><rect x="409.00" y="139.00" width="46.00" height="46.00" rx="4" fill="#cccccc" stroke="#000000" stroke-width="2"/><rect x="410.00" y="140.00" width="44.00" height="42.00" rx="4" fill="#fbfbfb" stroke="rgba(0,0,0,0.1)" stroke-width="2"/><rect x="410.00" y="140.00" width="44.00" height="42.00" rx="4" fill="#fbfbfb"/><text x="432.00" y="166.76" text-anchor="middle" font-size="16" fill="#7c7c7c" font-family="Helvetica,Arial,sans-serif">U</text></g><g class="keycap"><rect x="463.00" y="139.00" width="46.00" height="46.00" rx="4" fill="#cccccc" stroke="#000000" stroke-width="2"/><rect x="464.00" y="140.00" width="44.00" height="42.00" rx="4" fill="#fbfbfb" stroke="rgba(0,0,0,0.1)" stroke-width="2"/><rect x="464.00" y="140.00" width="44.00" height="42.00" rx="4" fill="#fbfbfb"/><text x="486.00" y="166.76" text-anchor="middle" font-size="16" fill="#7c7c7c" font-family="Helvetica,Arial,sans-serif">I</text></g><g class="keycap"><rect x="517.00" y="139.00" width="46.00" height="46.00" rx="4" fill="#cccccc" stroke="#000000" stroke-width="2"/><rect x="518.00" y="140.00" width="44.00" height="42.00" rx="4" fill="#fbfbfb" stroke="rgba(0,0,0,0.1)" stroke-width="2"/><rect x="518.00" y="140.00" width="44.00" height="42.00" rx="4" fill="#fbfbfb"/><text x="540.00" y="166.76" text-anchor="middle" font-size="16" fill="#7c7c7c" font-family="Helvetica,Arial,sans-serif">O</text></g><g class="keycap"><rect x="571.00" y="139.00" width="46.00" height="46.00" rx="4" fill="#cccccc" stroke="#000000" stroke-width="2"/><rect x="572.00" y="140.00" width="44.00" height="42.00" rx="4" fill="#fbfbfb" stroke="rgba(0,0,0,0.1)" stroke-width="2"/><rect x="572.00" y="140.00" width="44.00" height="42.00" rx="4" fill="#fbfbfb"/><text x="594.00" y="166.76" text-anchor="middle" font-size="16" fill="#7c7c7c" font-family="Helvetica,Arial,sans-serif">P</text></g><g class="keycap"><rect x="625.00" y="139.00" width="46.00" height="46.00" rx="4" fill="#cccccc" stroke="#000000" stroke-width="2"/><rect x="626.00" y="140.00" width="44.00" height="42.00" rx="4" fill="#fbfbfb" stroke="rgba(0,0,0,0.1)" stroke-width="2"/><rect x="626.00" y="140.00" width="44.00" height="42.00" rx="4" fill="#fbfbfb"/><text x="648.00" y="155.80" text-anchor="middle" font-size="16" fill="#7c7c7c" font-family="Helvetica,Arial,sans-serif">{</text><text x="648.00" y="175.80" text-anchor="middle" font-size="16" fill="#7c7c7c" font-family="Helvetica,Arial,sans-serif">[</text></g><g class="keycap"><rect x="679.00" y="139.00" width="46.00" height="46.00" rx="4" fill="#cccccc" stroke="#000000" stroke-width="2"/><rect x="680.00" y="140.00" width="44.00" height="42.00" rx="4" fill="#fbfbfb" stroke="rgba(0,0,0,0.1)" stroke-width="2"/><rect x="680.00" y="140.00" width="44.00" height="42.00" rx="4" fill="#fbfbfb"/><text x="702.00" y="155.80" text-anchor="middle" font-size="16" fill="#7c7c7c" font-family="Helvetica,Arial,sans-serif">}</text><text x="702.00" y="175.80" text-anchor="middle" font-size="16" fill="#7c7c7c" font-family="Helvetica,Arial,sans-serif">]</text></g><g class="keycap"><rect x="733.00" y="139.00" width="46.00" height="46.00" rx="4" fill="#cccccc" stroke="#000000" stroke-width="2"/><rect x="734.00" y="140.00" width="44.00" height="42.00" rx="4" fill="#fbfbfb" stroke="rgba(0,0,0,0.1)" stroke-width="2"/><rect x="734.00" y="140.00" width="44.00" height="42.00" rx="4" fill="#fbfbfb"/><text x="756.00" y="155.80" text-anchor="middle" font-size="16" fill="#7c7c7c" font-family="Helvetica,Arial,sans-serif">|</text><text x="756.00" y="175.80" text-anchor="middle" font-size="16" fill="#7c7c7c" font-family="Helvetica,Arial,sans-serif">\</text></g><g class="keycap"><rect x="4.00" y="193.00" width="86.50" height="46.00" rx="4" fill="#cccccc" stroke="#000000" stroke-width="2"/><rect x="5.00" y="194.00" width="84.50" height="42.00" rx="4" fill="#fbfbfb" stroke="rgba(0,0,0,0.1)" stroke-width="2"/><rect x="5.00" y="194.00" width="84.50" height="42.00" rx="4" fill="#fbfbfb"/><text x="8.00" y="231.00" text-anchor="start" font-size="10" fill="#7c7c7c" font-family="Helvetica,Arial,sans-serif">caps lock</text></g><g class="keycap"><rect x="98.50" y="193.00" width="46.00" height="46.00" rx="4" fill="#cccccc" stroke="#000000" stroke-width="2"/><rect x="99.50" y="194.00" width="44.00" height="42.00" rx="4" fill="#fbfbfb" stroke="rgba(0,0,0,0.1)" stroke-width="2"/><rect x="99.50" y="194.00" width="44.00" height="42.00" rx="4" fill="#fbfbfb"/><text x="121.50" y="220.76" text-anchor="middle" font-size="16" fill="#7c7c7c" font-family="Helvetica,Arial,sans-serif">A</text></g><g class="keycap"><rect x="152.50" y="193.00" width="46.00" height="46.00" rx="4" fill="#cccccc" stroke="#000000" stroke-width="2"/><rect x="153.50" y="194.00" width="44.00" height="42.00" rx="4" fill="#fbfbfb" stroke="rgba(0,0,0,0.1)" stroke-width="2"/><rect x="153.50" y="194.00" width="44.00" height="42.00" rx="4" fill="#fbfbfb"/><text x="175.50" y="220.76" text-anchor="middle" font-size="16" fill="#7c7c7c" font-family="Helvetica,Arial,sans-serif">S</text></g><g class="keycap"><rect x="206.50" y="193.00" width="46.00" height="46.00" rx="4" fill="#cccccc" stroke="#000000" stroke-width="2"/><rect x="207.50" y="194.00" width="44.00" height="42.00" rx="4" fill="#fbfbfb" stroke="rgba(0,0,0,0.1)" stroke-width="2"/><rect x="207.50" y="194.00" width="44.00" height="42.00" rx="4" fill="#fbfbfb"/><text x="229.50" y="220.76" text-anchor="middle" font-size="16" fill="#7c7c7c" font-family="Helvetica,Arial,sans-serif">D</text></g><g class="keycap"><rect x="260.50" y="193.00" width="46.00" height="46.00" rx="4" fill="#cccccc" stroke="#000000" stroke-width="2"/><rect x="261.50" y="194.00" width="44.00" height="42.00" rx="4" fill="#fbfbfb" stroke="rgba(0,0,0,0.1)" stroke-width="2"/><rect x="261.50" y="194.00" width="44.00" height="42.00" rx="4" fill="#fbfbfb"/><text x="283.50" y="220.76" text-anchor="middle" font-size="16" fill="#7c7c7c" font-family="Helvetica,Arial,sans-serif">F</text></g><g class="keycap"><rect x="314.50" y="193.00" width="46.00" height="46.00" rx="4" fill="#cccccc" stroke="#000000" stroke-width="2"/><rect x="315.50" y="194.00" width="44.00" height="42.00" rx="4" fill="#fbfbfb" stroke="rgba(0,0,0,0.1)" stroke-width="2"/><rect x="315.50" y="194.00" width="44.00" height="42.00" rx="4" fill="#fbfbfb"/><text x="337.50" y="220.76" text-anchor="middle" font-size="16" fill="#7c7c7c" font-family="Helvetica,Arial,sans-serif">G</text></g><g class="keycap"><rect x="368.50" y="193.00" width="46.00" height="46.00" rx="4" fill="#cccccc" stroke="#000000" stroke-width="2"/><rect x="369.50" y="194.00" width="44.00" height="42.00" rx="4" fill="#fbfbfb" stroke="rgba(0,0,0,0.1)" stroke-width="2"/><rect x="369.50" y="194.00" width="44.00" height="42.00" rx="4" fill="#fbfbfb"/><text x="391.50" y="220.76" text-anchor="middle" font-size="16" fill="#7c7c7c" font-family="Helvetica,Arial,sans-serif">H</text></g><g class="keycap"><rect x="422.50" y="193.00" width="46.00" height="46.00" rx="4" fill="#cccccc" stroke="#000000" stroke-width="2"/><rect x="423.50" y="194.00" width="44.00" height="42.00" rx="4" fill="#fbfbfb" stroke="rgba(0,0,0,0.1)" stroke-width="2"/><rect x="423.50" y="194.00" width="44.00" height="42.00" rx="4" fill="#fbfbfb"/><text x="445.50" y="220.76" text-anchor="middle" font-size="16" fill="#7c7c7c" font-family="Helvetica,Arial,sans-serif">J</text></g><g class="keycap"><rect x="476.50" y="193.00" width="46.00" height="46.00" rx="4" fill="#cccccc" stroke="#000000" stroke-width="2"/><rect x="477.50" y="194.00" width="44.00" height="42.00" rx="4" fill="#fbfbfb" stroke="rgba(0,0,0,0.1)" stroke-width="2"/><rect x="477.50" y="194.00" width="44.00" height="42.00" rx="4" fill="#fbfbfb"/><text x="499.50" y="220.76" text-anchor="middle" font-size="16" fill="#7c7c7c" font-family="Helvetica,Arial,sans-serif">K</text></g><g class="keycap"><rect x="530.50" y="193.00" width="46.00" height="46.00" rx="4" fill="#cccccc" stroke="#000000" stroke-width="2"/><rect x="531.50" y="194.00" width="44.00" height="42.00" rx="4" fill="#fbfbfb" stroke="rgba(0,0,0,0.1)" stroke-width="2"/><rect x="531.50" y="194.00" width="44.00" height="42.00" rx="4" fill="#fbfbfb"/><text x="553.50" y="220.76" text-anchor="middle" font-size="16" fill="#7c7c7c" font-family="Helvetica,Arial,sans-serif">L</text></g><g class="keycap"><rect x="584.50" y="193.00" width="46.00" height="46.00" rx="4" fill="#cccccc" stroke="#000000" stroke-width="2"/><rect x="585.50" y="194.00" width="44.00" height="42.00" rx="4" fill="#fbfbfb" stroke="rgba(0,0,0,0.1)" stroke-width="2"/><rect x="585.50" y="194.00" width="44.00" height="42.00" rx="4" fill="#fbfbfb"/><text x="607.50" y="209.80" text-anchor="middle" font-size="16" fill="#7c7c7c" font-family="Helvetica,Arial,sans-serif">:</text><text x="607.50" y="229.80" text-anchor="middle" font-size="16" fill="#7c7c7c" font-family="Helvetica,Arial,sans-serif">;</text></g><g class="keycap"><rect x="638.50" y="193.00" width="46.00" height="46.00" rx="4" fill="#cccccc" stroke="#000000" stroke-width="2"/><rect x="639.50" y="194.00" width="44.00" height="42.00" rx="4" fill="#fbfbfb" stroke="rgba(0,0,0,0.1)" stroke-width="2"/><rect x="639.50" y="194.00" width="44.00" height="42.00" rx="4" fill="#fbfbfb"/><text x="661.50" y="209.80" text-anchor="middle" font-size="16" fill="#7c7c7c" font-family="Helvetica,Arial,sans-serif">"</text><text x="661.50" y="229.80" text-anchor="middle" font-size="16" fill="#7c7c7c" font-family="Helvetica,Arial,sans-serif">'</text></g><g class="keycap"><rect x="692.50" y="193.00" width="86.50" height="46.00" rx="4" fill="#cccccc" stroke="#000000" stroke-width="2"/><rect x="693.50" y="194.00" width="84.50" height="42.00" rx="4" fill="#fbfbfb" stroke="rgba(0,0,0,0.1)" stroke-width="2"/><rect x="693.50" y="194.00" width="84.50" height="42.00" rx="4" fill="#fbfbfb"/><text x="775.00" y="203.40" text-anchor="end" font-size="8" fill="#7c7c7c" font-family="Helvetica,Arial,sans-serif">enter</text><text x="775.00" y="231.00" text-anchor="end" font-size="10" fill="#7c7c7c" font-family="Helvetica,Arial,sans-serif">return</text></g><g class="keycap"><rect x="4.00" y="247.00" width="113.50" height="46.00" rx="4" fill="#cccccc" stroke="#000000" stroke-width="2"/><rect x="5.00" y="248.00" width="111.50" height="42.00" rx="4" fill="#fbfbfb" stroke="rgba(0,0,0,0.1)" stroke-width="2"/><rect x="5.00" y="248.00" width="111.50" height="42.00" rx="4" fill="#fbfbfb"/><text x="8.00" y="285.00" text-anchor="start" font-size="10" fill="#7c7c7c" font-family="Helvetica,Arial,sans-serif">shift</text></g><g class="keycap"><rect x="125.50" y="247.00" width="46.00" height="46.00" rx="4" fill="#cccccc" stroke="#000000" stroke-width="2"/><rect x="126.50" y="248.00" width="44.00" height="42.00" rx="4" fill="#fbfbfb" stroke="rgba(0,0,0,0.1)" stroke-width="2"/><rect x="126.50" y="248.00" width="44.00" height="42.00" rx="4" fill="#fbfbfb"/><text x="148.50" y="274.76" text-anchor="middle" font-size="16" fill="#7c7c7c" font-family="Helvetica,Arial,sans-serif">Z</text></g><g class="keycap"><rect x="179.50" y="247.00" width="46.00" height="46.00" rx="4" fill="#cccccc" stroke="#000000" stroke-width="2"/><rect x="180.50" y="248.00" width="44.00" height="42.00" rx="4" fill="#fbfbfb" stroke="rgba(0,0,0,0.1)" stroke-width="2"/><rect x="180.50" y="248.00" width="44.00" height="42.00" rx="4" fill="#fbfbfb"/><text x="202.50" y="274.76" text-anchor="middle" font-size="16" fill="#7c7c7c" font-family="Helvetica,Arial,sans-serif">X</text></g><g class="keycap"><rect x="233.50" y="247.00" width="46.00" height="46.00" rx="4" fill="#cccccc" stroke="#000000" stroke-width="2"/><rect x="234.50" y="248.00" width="44.00" height="42.00" rx="4" fill="#fbfbfb" stroke="rgba(0,0,0,0.1)" stroke-width="2"/><rect x="234.50" y="248.00" width="44.00" height="42.00" rx="4" fill="#fbfbfb"/><text x="256.50" y="274.76" text-anchor="middle" font-size="16" fill="#7c7c7c" font-family="Helvetica,Arial,sans-serif">C</text></g><g class="keycap"><rect x="287.50" y="247.00" width="46.00" height="46.00" rx="4" fill="#cccccc" stroke="#000000" stroke-width="2"/><rect x="288.50" y="248.00" width="44.00" height="42.00" rx="4" fill="#fbfbfb" stroke="rgba(0,0,0,0.1)" stroke-width="2"/><rect x="288.50" y="248.00" width="44.00" height="42.00" rx="4" fill="#fbfbfb"/><text x="310.50" y="274.76" text-anchor="middle" font-size="16" fill="#7c7c7c" font-family="Helvetica,Arial,sans-serif">V</text></g><g class="keycap"><rect x="341.50" y="247.00" width="46.00" height="46.00" rx="4" fill="#cccccc" stroke="#000000" stroke-width="2"/><rect x="342.50" y="248.00" width="44.00" height="42.00" rx="4" fill="#fbfbfb" stroke="rgba(0,0,0,0.1)" stroke-width="2"/><rect x="342.50" y="248.00" width="44.00" height="42.00" rx="4" fill="#fbfbfb"/><text x="364.50" y="274.76" text-anchor="middle" font-size="16" fill="#7c7c7c" font-family="Helvetica,Arial,sans-serif">B</text></g><g class="keycap"><rect x="395.50" y="247.00" width="46.00" height="46.00" rx="4" fill="#cccccc" stroke="#000000" stroke-width="2"/><rect x="396.50" y="248.00" width="44.00" height="42.00" rx="4" fill="#fbfbfb" stroke="rgba(0,0,0,0.1)" stroke-width="2"/><rect x="396.50" y="248.00" width="44.00" height="42.00" rx="4" fill="#fbfbfb"/><text x="418.50" y="274.76" text-anchor="middle" font-size="16" fill="#7c7c7c" font-family="Helvetica,Arial,sans-serif">N</text></g><g class="keycap"><rect x="449.50" y="247.00" width="46.00" height="46.00" rx="4" fill="#cccccc" stroke="#000000" stroke-width="2"/><rect x="450.50" y="248.00" width="44.00" height="42.00" rx="4" fill="#fbfbfb" stroke="rgba(0,0,0,0.1)" stroke-width="2"/><rect x="450.50" y="248.00" width="44.00" height="42.00" rx="4" fill="#fbfbfb"/><text x="472.50" y="274.76" text-anchor="middle" font-size="16" fill="#7c7c7c" font-family="Helvetica,Arial,sans-serif">M</text></g><g class="keycap"><rect x="503.50" y="247.00" width="46.00" height="46.00" rx="4" fill="#cccccc" stroke="#000000" stroke-width="2"/><rect x="504.50" y="248.00" width="44.00" height="42.00" rx="4" fill="#fbfbfb" stroke="rgba(0,0,0,0.1)" stroke-width="2"/><rect x="504.50" y="248.00" width="44.00" height="42.00" rx="4" fill="#fbfbfb"/><text x="526.50" y="263.80" text-anchor="middle" font-size="16" fill="#7c7c7c" font-family="Helvetica,Arial,sans-serif">&lt;</text><text x="526.50" y="283.80" text-anchor="middle" font-size="16" fill="#7c7c7c" font-family="Helvetica,Arial,sans-serif">,</text></g><g class="keycap"><rect x="557.50" y="247.00" width="46.00" height="46.00" rx="4" fill="#cccccc" stroke="#000000" stroke-width="2"/><rect x="558.50" y="248.00" width="44.00" height="42.00" rx="4" fill="#fbfbfb" stroke="rgba(0,0,0,0.1)" stroke-width="2"/><rect x="558.50" y="248.00" width="44.00" height="42.00" rx="4" fill="#fbfbfb"/><text x="580.50" y="263.80" text-anchor="middle" font-size="16" fill="#7c7c7c" font-family="Helvetica,Arial,sans-serif">&gt;</text><text x="580.50" y="283.80" text-anchor="middle" font-size="16" fill="#7c7c7c" font-family="Helvetica,Arial,sans-serif">.</text></g><g class="keycap"><rect x="611.50" y="247.00" width="46.00" height="46.00" rx="4" fill="#cccccc" stroke="#000000" stroke-width="2"/><rect x="612.50" y="248.00" width="44.00" height="42.00" rx="4" fill="#fbfbfb" stroke="rgba(0,0,0,0.1)" stroke-width="2"/><rect x="612.50" y="248.00" width="44.00" height="42.00" rx="4" fill="#fbfbfb"/><text x="634.50" y="263.80" text-anchor="middle" font-size="16" fill="#7c7c7c" font-family="Helvetica,Arial,sans-serif">?</text><text x="634.50" y="283.80" text-anchor="middle" font-size="16" fill="#7c7c7c" font-family="Helvetica,Arial,sans-serif">/</text></g><g class="keycap"><rect x="665.50" y="247.00" width="113.50" height="46.00" rx="4" fill="#cccccc" stroke="#000000" stroke-width="2"/><rect x="666.50" y="248.00" width="111.50" height="42.00" rx="4" fill="#fbfbfb" stroke="rgba(0,0,0,0.1)" stroke-width="2"/><rect x="666.50" y="248.00" width="111.50" height="42.00" rx="4" fill="#fbfbfb"/><text x="775.00" y="285.00" text-anchor="end" font-size="10" fill="#7c7c7c" font-family="Helvetica,Arial,sans-serif">shift</text></g><g class="keycap"><rect x="4.00" y="301.00" width="46.00" height="51.99" rx="4" fill="#cccccc" stroke="#000000" stroke-width="2"/><rect x="5.00" y="302.00" width="44.00" height="47.99" rx="4" fill="#fbfbfb" stroke="rgba(0,0,0,0.1)" stroke-width="2"/><rect x="5.00" y="302.00" width="44.00" height="47.99" rx="4" fill="#fbfbfb"/><text x="8.00" y="344.99" text-anchor="start" font-size="10" fill="#7c7c7c" font-family="Helvetica,Arial,sans-serif">fn</text></g><g class="keycap"><rect x="58.00" y="301.00" width="46.00" height="51.99" rx="4" fill="#cccccc" stroke="#000000" stroke-width="2"/><rect x="59.00" y="302.00" width="44.00" height="47.99" rx="4" fill="#fbfbfb" stroke="rgba(0,0,0,0.1)" stroke-width="2"/><rect x="59.00" y="302.00" width="44.00" height="47.99" rx="4" fill="#fbfbfb"/><text x="62.00" y="344.99" text-anchor="start" font-size="10" fill="#7c7c7c" font-family="Helvetica,Arial,sans-serif">control</text></g><g class="keycap"><rect x="112.00" y="301.00" width="46.00" height="51.99" rx="4" fill="#cccccc" stroke="#000000" stroke-width="2"/><rect x="113.00" y="302.00" width="44.00" height="47.99" rx="4" fill="#fbfbfb" stroke="rgba(0,0,0,0.1)" stroke-width="2"/><rect x="113.00" y="302.00" width="44.00" height="47.99" rx="4" fill="#fbfbfb"/><text x="116.00" y="311.40" text-anchor="start" font-size="8" fill="#7c7c7c" font-family="Helvetica,Arial,sans-serif">alt</text><text x="116.00" y="344.99" text-anchor="start" font-size="10" fill="#7c7c7c" font-family="Helvetica,Arial,sans-serif">option</text></g><g class="keycap"><rect x="166.00" y="301.00" width="59.50" height="51.99" rx="4" fill="#cccccc" stroke="#000000" stroke-width="2"/><rect x="167.00" y="302.00" width="57.50" height="47.99" rx="4" fill="#fbfbfb" stroke="rgba(0,0,0,0.1)" stroke-width="2"/><rect x="167.00" y="302.00" width="57.50" height="47.99" rx="4" fill="#fbfbfb"/><text x="221.50" y="317.80" text-anchor="end" font-size="16" fill="#7c7c7c" font-family="Helvetica,Arial,sans-serif">⌘</text><text x="221.50" y="344.99" text-anchor="end" font-size="10" fill="#7c7c7c" font-family="Helvetica,Arial,sans-serif">command</text></g><g class="keycap"><rect x="233.50" y="301.00" width="262.00" height="51.99" rx="4" fill="#cccccc" stroke="#000000" stroke-width="2"/><rect x="234.50" y="302.00" width="260.00" height="47.99" rx="4" fill="#fbfbfb" stroke="rgba(0,0,0,0.1)" stroke-width="2"/><rect x="234.50" y="302.00" width="260.00" height="47.99" rx="4" fill="#fbfbfb"/></g><g class="keycap"><rect x="503.50" y="301.00" width="59.50" height="51.99" rx="4" fill="#cccccc" stroke="#000000" stroke-width="2"/><rect x="504.50" y="302.00" width="57.50" height="47.99" rx="4" fill="#fbfbfb" stroke="rgba(0,0,0,0.1)" stroke-width="2"/><rect x="504.50" y="302.00" width="57.50" height="47.99" rx="4" fill="#fbfbfb"/><text x="507.50" y="317.80" text-anchor="start" font-size="16" fill="#7c7c7c" font-family="Helvetica,Arial,sans-serif">⌘</text><text x="507.50" y="344.99" text-anchor="start" font-size="10" fill="#7c7c7c" font-family="Helvetica,Arial,sans-serif">command</text></g><g class="keycap"><rect x="571.00" y="301.00" width="46.00" height="51.99" rx="4" fill="#cccccc" stroke="#000000" stroke-width="2"/><rect x="572.00" y="302.00" width="44.00" height="47.99" rx="4" fill="#fbfbfb" stroke="rgba(0,0,0,0.1)" stroke-width="2"/><rect x="572.00" y="302.00" width="44.00" height="47.99" rx="4" fill="#fbfbfb"/><text x="613.00" y="311.40" text-anchor="end" font-size="8" fill="#7c7c7c" font-family="Helvetica,Arial,sans-serif">alt</text><text x="613.00" y="344.99" text-anchor="end" font-size="10" fill="#7c7c7c" font-family="Helvetica,Arial,sans-serif">option</text></g><g class="keycap"><rect x="679.00" y="301.00" width="46.00" height="24.99" rx="4" fill="#cccccc" stroke="#000000" stroke-width="2"/><rect x="680.00" y="302.00" width="44.00" height="20.99" rx="4" fill="#fbfbfb" stroke="rgba(0,0,0,0.1)" stroke-width="2"/><rect x="680.00" y="302.00" width="44.00" height="20.99" rx="4" fill="#fbfbfb"/><text x="702.00" y="318.26" text-anchor="middle" font-size="16" fill="#7c7c7c" font-family="Helvetica,Arial,sans-serif">↑</text></g><g class="keycap"><rect x="625.00" y="328.00" width="46.00" height="25.00" rx="4" fill="#cccccc" stroke="#000000" stroke-width="2"/><rect x="626.00" y="329.00" width="44.00" height="21.00" rx="4" fill="#fbfbfb" stroke="rgba(0,0,0,0.1)" stroke-width="2"/><rect x="626.00" y="329.00" width="44.00" height="21.00" rx="4" fill="#fbfbfb"/><text x="648.00" y="345.26" text-anchor="middle" font-size="16" fill="#7c7c7c" font-family="Helvetica,Arial,sans-serif">←</text></g><g class="keycap"><rect x="679.00" y="328.00" width="46.00" height="25.00" rx="4" fill="#cccccc" stroke="#000000" stroke-width="2"/><rect x="680.00" y="329.00" width="44.00" height="21.00" rx="4" fill="#fbfbfb" stroke="rgba(0,0,0,0.1)" stroke-width="2"/><rect x="680.00" y="329.00" width="44.00" height="21.00" rx="4" fill="#fbfbfb"/><text x="702.00" y="345.26" text-anchor="middle" font-size="16" fill="#7c7c7c" font-family="Helvetica,Arial,sans-serif">↓</text></g><g class="keycap"><rect x="733.00" y="328.00" width="46.00" height="25.00" rx="4" fill="#cccccc" stroke="#000000" stroke-width="2"/><rect x="734.00" y="329.00" width="44.00" height="21.00" rx="4" fill="#fbfbfb" stroke="rgba(0,0,0,0.1)" stroke-width="2"/><rect x="734.00" y="329.00" width="44.00" height="21.00" rx="4" fill="#fbfbfb"/><text x="756.00" y="345.26" text-anchor="middle" font-size="16" fill="#7c7c7c" font-family="Helvetica,Arial,sans-serif">→</text></g></g></svg>